<?xml version="1.0" standalone="no"?>
<!DOCTYPE svg PUBLIC "-//W3C//DTD SVG 20010904//EN"
 "http://www.w3.org/TR/2001/REC-SVG-20010904/DTD/svg10.dtd">
<svg version="1.0" xmlns="http://www.w3.org/2000/svg"
 width="109.000000pt" height="109.000000pt" viewBox="0 0 109.000000 109.000000"
 preserveAspectRatio="xMidYMid meet">
<metadata>
Created by potrace 1.14, written by Peter Selinger 2001-2017
</metadata>
<g transform="translate(0.000000,109.000000) scale(0.100000,-0.100000)"
fill="#000000" stroke="none">
<path d="M466 1070 c-70 -35 -121 -123 -90 -155 21 -21 39 -9 57 35 17 45 67
80 112 80 43 0 93 -34 113 -77 19 -43 30 -53 48 -46 34 13 16 84 -33 129 -59
56 -137 69 -207 34z"/>
<path d="M211 842 c-51 -26 -50 -22 -51 -414 l0 -367 24 -28 c40 -46 88 -38
221 37 68 38 121 62 140 62 18 0 79 -27 150 -66 66 -36 132 -66 146 -66 16 0
40 12 58 29 l31 29 0 370 0 369 -25 27 c-13 14 -32 27 -42 27 -10 1 -155 2
-323 3 -229 1 -310 -2 -329 -12z m441 -126 c151 -74 189 -275 75 -394 -53 -55
-102 -76 -182 -77 -79 0 -125 18 -176 69 -122 122 -86 322 73 403 54 27 154
27 210 -1z"/>
<path d="M662 638 c-7 -7 -12 -22 -12 -35 0 -23 -1 -23 -129 -23 -110 0 -130
-2 -135 -16 -13 -34 9 -39 156 -39 79 0 149 4 156 8 12 8 17 73 6 101 -7 19
-25 21 -42 4z"/>
<path d="M387 464 c-10 -11 4 -59 28 -90 76 -99 233 -80 281 35 17 41 12 61
-16 61 -13 0 -24 -11 -33 -32 -20 -48 -51 -70 -95 -72 -49 -1 -89 25 -108 70
-13 31 -40 45 -57 28z"/>
</g>
</svg>
