<?xml version="1.0" encoding="UTF-8"?>
<svg id="Layer_1" data-name="Layer 1" xmlns="http://www.w3.org/2000/svg" xmlns:xlink="http://www.w3.org/1999/xlink" viewBox="0 0 250 250">
  <defs>
    <style>
      .cls-1 {
        fill: url(#linear-gradient-2);
      }

      .cls-2 {
        fill: #fff;
      }

      .cls-3 {
        fill: url(#linear-gradient-3);
      }

      .cls-4 {
        fill: url(#linear-gradient);
      }

      .cls-5 {
        fill: url(#linear-gradient-4);
      }
    </style>
    <linearGradient id="linear-gradient" x1="29.9" y1="231.11" x2="189.68" y2="50.34" gradientUnits="userSpaceOnUse">
      <stop offset="0" stop-color="#11c5e3"/>
      <stop offset="1" stop-color="#4dd652"/>
    </linearGradient>
    <linearGradient id="linear-gradient-2" x1="43.49" y1="243.12" x2="203.27" y2="62.35" xlink:href="#linear-gradient"/>
    <linearGradient id="linear-gradient-3" x1="44.04" y1="243.61" x2="203.82" y2="62.84" xlink:href="#linear-gradient"/>
    <linearGradient id="linear-gradient-4" x1="-15.51" y1="190.98" x2="144.27" y2="10.21" xlink:href="#linear-gradient"/>
  </defs>
  <g>
    <circle class="cls-2" cx="125.01" cy="137.65" r="57.59"/>
    <path class="cls-4" d="m156.45,101.1h-.65c-3.3,0-5.98,2.68-5.98,5.98v10.13h-56.26c-3.3,0-5.98,2.68-5.98,5.98v.65c0,3.3,2.68,5.98,5.98,5.98h62.89c3.3,0,5.98-2.68,5.98-5.98v-16.76c0-3.3-2.68-5.98-5.98-5.98Z"/>
    <path class="cls-1" d="m156.16,141.42h-.07c-3.02,0-5.54,2.17-6.15,5.12-2.38,11.58-12.65,20.32-24.93,20.32s-22.55-8.74-24.93-20.32c-.61-2.96-3.13-5.12-6.15-5.12h-.07c-3.92,0-6.91,3.57-6.15,7.41,3.46,17.43,18.87,30.62,37.3,30.62s33.85-13.18,37.3-30.62c.76-3.84-2.23-7.41-6.15-7.41Z"/>
    <path class="cls-3" d="m192.24,54.02H57.77c-12.27,0-22.22,9.95-22.22,22.22v151.51c0,16.88,18.08,27.6,32.89,19.49l45.89-25.13c6.65-3.64,14.69-3.64,21.34,0l45.89,25.13c14.81,8.11,32.89-2.61,32.89-19.49V76.24c0-12.27-9.95-22.22-22.22-22.22Zm-67.23,141.22c-31.81,0-57.59-25.79-57.59-57.59s25.79-57.59,57.59-57.59,57.59,25.79,57.59,57.59-25.79,57.59-57.59,57.59Z"/>
  </g>
  <path class="cls-5" d="m159.89,42.41h-.08c-3.37,0-6.18-2.42-6.86-5.71-2.65-12.92-14.11-22.67-27.8-22.67-13.69,0-25.15,9.75-27.8,22.67-.68,3.3-3.5,5.71-6.86,5.71h-.08c-4.37,0-7.71-3.98-6.86-8.26C87.4,14.7,104.59,0,125.15,0c20.56,0,37.75,14.7,41.61,34.15.85,4.29-2.49,8.26-6.86,8.26Z"/>
</svg>