<svg id="Layer_1" data-name="Layer 1" xmlns="http://www.w3.org/2000/svg" viewBox="0 0 200 200"><defs><style>.cls-1{fill:#11c5e3;}.cls-2{fill:#4dd652;}</style></defs><path class="cls-1" d="M144.12,67.2a13.56,13.56,0,0,1-1.88,2.06l-27.9,24.3a28.68,28.68,0,0,1-23.94,6.58L54,93.5a13.67,13.67,0,0,1-2.6-.78A70.43,70.43,0,1,0,144.12,67.2Zm4.48,80.67a37.2,37.2,0,0,1-2.47,8.35c-6.94,14.61-18.71,22-32.43,22.67-20-.07-35.21-12.18-39.24-29.27-.66-2.79-.44-5.34,1.92-7.28a6.25,6.25,0,0,1,10.14,3.52c2.57,11,10.34,18.34,21.25,20.13,12.6,2.07,25.41-6.46,28.29-18.86.49-2.1,1.2-4,3.12-5.24A6,6,0,0,1,146,142,5.46,5.46,0,0,1,148.6,147.87Zm-6.15-18.66q-30.76,0-61.52,0c-4.13,0-6.67-2.5-6.64-6.42,0-3.77,2.59-6.17,6.66-6.17h55.41c0-3.38,0-6.42,0-9.46,0-4,2.43-6.57,6.26-6.57s6.35,2.56,6.36,6.52q0,7.71,0,15.43C149,126.81,146.65,129.21,142.45,129.21Z"/><path class="cls-2" d="M94.21,69a25.43,25.43,0,0,1-11.33.49l-39.8-7.26L46,72.86l2.56,9.3A8.18,8.18,0,0,0,55,88.06L75.7,91.84,91.39,94.7a23.1,23.1,0,0,0,19.31-5.31l12-10.47,15.88-13.83a8.19,8.19,0,0,0,2.52-8.36l-2.55-9.31-3-11.05L104.2,63.66A25.33,25.33,0,0,1,94.21,69Z"/><polygon class="cls-2" points="127.77 8.09 127.39 8.2 127.82 8.28 127.77 8.09"/><path class="cls-2" d="M147.51,11.86,127.82,8.28l-.43-.08L84.2.32A19.63,19.63,0,0,0,67.71,4.85L19.19,47.12a3,3,0,0,0,1.42,5.18l20.77,3.78,42.54,7.76a19.6,19.6,0,0,0,16.48-4.53l33.44-29.12,5.27-4.6.85,3.09.85,3.09L150.76,68a3.71,3.71,0,0,0,7.15-2L147,26.38l-.85-3.09-.85-3.09L148.93,17a2.9,2.9,0,0,0,.92-3A2.94,2.94,0,0,0,147.51,11.86Z"/></svg>