<svg id="Layer_1" data-name="Layer 1" xmlns="http://www.w3.org/2000/svg" viewBox="0 0 200 200"><defs><style>.cls-1{fill:#11c5e3;}.cls-2{fill:#4dd652;}</style></defs><path class="cls-1" d="M138,0H24.41A24.44,24.44,0,0,0,0,24.41V142a24.44,24.44,0,0,0,24.41,24.4H101a54.43,54.43,0,0,1-1.18-7.72c-.11-1.43-.19-2.88-.19-4.34A54.31,54.31,0,0,1,154,100h0a53.84,53.84,0,0,1,8.38.68V24.41A24.44,24.44,0,0,0,138,0ZM89.32,121.23H39.12a4.19,4.19,0,1,1,0-8.38h50.2a4.19,4.19,0,0,1,0,8.38Zm35.74-33.4H39.12a4.19,4.19,0,1,1,0-8.38h85.94a4.19,4.19,0,0,1,0,8.38Zm0-33.41H39.12a4.19,4.19,0,1,1,0-8.38h85.94a4.19,4.19,0,0,1,0,8.38Z"/><path class="cls-2" d="M162.37,109a45.43,45.43,0,0,0-8.38-.78h0a46.06,46.06,0,0,0-46,46.06c0,1.24.06,2.46.16,3.68A46,46,0,1,0,162.37,109Zm14.56,51.33-28.7,16.57a7,7,0,0,1-10.5-6.07V137.74a7,7,0,0,1,10.5-6.07L154,135l8.38,4.83,14.56,8.41A7,7,0,0,1,176.93,160.37Z"/></svg>