<svg id="Layer_1" data-name="Layer 1" xmlns="http://www.w3.org/2000/svg" viewBox="0 0 200 200"><defs><style>.cls-1{fill:#b3b3b3;}.cls-2{fill:none;}.cls-3{fill:#11c5e3;}.cls-4{fill:#4dd652;}</style></defs><path class="cls-1" d="M194.06,45.25a6.08,6.08,0,0,1-2.2-.41L117.61,15.62a47.88,47.88,0,0,0-35.22,0L8.29,44.8a6,6,0,1,1-4.4-11.16L78,4.46a59.87,59.87,0,0,1,44,0l74.25,29.21a6,6,0,0,1-2.2,11.58Z"/><path class="cls-2" d="M85.37,143.06l-49.28-20.6a2.06,2.06,0,1,0-1.59,3.8l49.28,20.61a2,2,0,0,0,.79.16,2.06,2.06,0,0,0,.8-4Z"/><path class="cls-2" d="M85.26,158.86,36,138.25a2.06,2.06,0,0,0-1.59,3.81l49.28,20.6a2.06,2.06,0,1,0,1.59-3.8Z"/><path class="cls-2" d="M85.59,111.47,36.31,90.86a2.07,2.07,0,0,0-1.6,3.81L84,115.27a2.07,2.07,0,0,0,2.7-1.1A2.06,2.06,0,0,0,85.59,111.47Z"/><path class="cls-2" d="M17.36,161.65V84.37H11a.29.29,0,0,0-.29.28V189a.29.29,0,0,0,.29.29H67.51L23.92,171.42A10.55,10.55,0,0,1,17.36,161.65Z"/><path class="cls-2" d="M85.48,127.27,36.2,106.66a2.06,2.06,0,1,0-1.59,3.8l49.28,20.61A2.05,2.05,0,0,0,86.58,130,2.05,2.05,0,0,0,85.48,127.27Z"/><path class="cls-2" d="M166.83,122.62l-49.42,20.27a2.06,2.06,0,0,0,.78,4,2.17,2.17,0,0,0,.79-.15l49.41-20.28a2.06,2.06,0,1,0-1.56-3.81Z"/><path class="cls-2" d="M189,84.37h-6.34v77.28a10.55,10.55,0,0,1-6.56,9.77l-43.59,17.85H189a.29.29,0,0,0,.29-.29V84.65A.29.29,0,0,0,189,84.37Z"/><path class="cls-2" d="M169.52,139.54a2.06,2.06,0,0,0-2.69-1.13l-49.42,20.28a2.06,2.06,0,0,0,.78,4,2,2,0,0,0,.79-.16l49.41-20.27A2.06,2.06,0,0,0,169.52,139.54Z"/><path class="cls-2" d="M118.19,131.06a2.17,2.17,0,0,0,.79-.15l49.41-20.28a2.06,2.06,0,1,0-1.56-3.81l-49.42,20.27a2.06,2.06,0,0,0,.78,4Z"/><path class="cls-2" d="M118.19,115.27a2,2,0,0,0,.79-.16l49.41-20.27A2.06,2.06,0,1,0,166.83,91L117.41,111.3a2.06,2.06,0,0,0,.78,4Z"/><path class="cls-3" d="M8.29,44.8l74.1-29.17a47.88,47.88,0,0,1,35.22,0l74.25,29.22a6.08,6.08,0,0,0,2.2.41,6,6,0,0,0,2.2-11.58L122,4.46a59.87,59.87,0,0,0-44,0L3.89,33.64A6,6,0,1,0,8.29,44.8Z"/><path class="cls-2" d="M85.48,127.27,36.2,106.66a2.06,2.06,0,1,0-1.59,3.8l49.28,20.61A2.05,2.05,0,0,0,86.58,130,2.05,2.05,0,0,0,85.48,127.27Z"/><path class="cls-2" d="M85.59,111.47,36.31,90.86a2.07,2.07,0,0,0-1.6,3.81L84,115.27a2.07,2.07,0,0,0,2.7-1.1A2.06,2.06,0,0,0,85.59,111.47Z"/><path class="cls-2" d="M118.19,115.27a2,2,0,0,0,.79-.16l49.41-20.27A2.06,2.06,0,1,0,166.83,91L117.41,111.3a2.06,2.06,0,0,0,.78,4Z"/><path class="cls-2" d="M17.36,161.65V84.37H11a.29.29,0,0,0-.29.28V189a.29.29,0,0,0,.29.29H67.51L23.92,171.42A10.55,10.55,0,0,1,17.36,161.65Z"/><path class="cls-2" d="M85.26,158.86,36,138.25a2.06,2.06,0,0,0-1.59,3.81l49.28,20.6a2.06,2.06,0,1,0,1.59-3.8Z"/><path class="cls-2" d="M85.37,143.06l-49.28-20.6a2.06,2.06,0,1,0-1.59,3.8l49.28,20.61a2,2,0,0,0,.79.16,2.06,2.06,0,0,0,.8-4Z"/><path class="cls-2" d="M169.52,139.54a2.06,2.06,0,0,0-2.69-1.13l-49.42,20.28a2.06,2.06,0,0,0,.78,4,2,2,0,0,0,.79-.16l49.41-20.27A2.06,2.06,0,0,0,169.52,139.54Z"/><path class="cls-2" d="M189,84.37h-6.34v77.28a10.55,10.55,0,0,1-6.56,9.77l-43.59,17.85H189a.29.29,0,0,0,.29-.29V84.65A.29.29,0,0,0,189,84.37Z"/><path class="cls-2" d="M166.83,122.62l-49.42,20.27a2.06,2.06,0,0,0,.78,4,2.17,2.17,0,0,0,.79-.15l49.41-20.28a2.06,2.06,0,1,0-1.56-3.81Z"/><path class="cls-2" d="M118.19,131.06a2.17,2.17,0,0,0,.79-.15l49.41-20.28a2.06,2.06,0,1,0-1.56-3.81l-49.42,20.27a2.06,2.06,0,0,0,.78,4Z"/><path class="cls-4" d="M189,73.64h-6.34v-15a10.56,10.56,0,0,0-14.56-9.77l-56,22.92-.06,0a12,12,0,0,0-7.54,11V200H189a11,11,0,0,0,11-11V84.65A11,11,0,0,0,189,73.64ZM117.41,111.3,166.83,91a2.06,2.06,0,1,1,1.56,3.82L119,115.11a2,2,0,0,1-.79.16,2.06,2.06,0,0,1-.78-4Zm0,15.79,49.42-20.27a2.06,2.06,0,1,1,1.56,3.81L119,130.91a2.17,2.17,0,0,1-.79.15,2.06,2.06,0,0,1-.78-4Zm51-.66L119,146.71a2.17,2.17,0,0,1-.79.15,2.06,2.06,0,0,1-.78-4l49.42-20.27a2.06,2.06,0,1,1,1.56,3.81Zm-50.2,36.23a2.06,2.06,0,0,1-.78-4l49.42-20.28a2.06,2.06,0,1,1,1.56,3.82L119,162.5A2,2,0,0,1,118.19,162.66ZM189.27,189a.29.29,0,0,1-.29.29H132.49l43.59-17.85a10.55,10.55,0,0,0,6.56-9.77V84.37H189a.29.29,0,0,1,.29.28Z"/><path class="cls-3" d="M87.9,71.75l-56-22.92A10.56,10.56,0,0,0,17.36,58.6v15H11a11,11,0,0,0-11,11V189a11,11,0,0,0,11,11H95.5V82.83a12,12,0,0,0-7.54-11ZM11,189.27a.29.29,0,0,1-.29-.29V84.65a.29.29,0,0,1,.29-.28h6.34v77.28a10.55,10.55,0,0,0,6.56,9.77l43.59,17.85Zm75.35-27.71a2,2,0,0,1-2.7,1.1l-49.28-20.6A2.06,2.06,0,0,1,36,138.25l49.28,20.61A2.07,2.07,0,0,1,86.37,161.56Zm.11-15.8A2.07,2.07,0,0,1,84.57,147a2,2,0,0,1-.79-.16L34.5,126.26a2.06,2.06,0,1,1,1.59-3.8l49.28,20.6A2.07,2.07,0,0,1,86.48,145.76Zm.1-15.8a2.05,2.05,0,0,1-2.69,1.11L34.61,110.46a2.06,2.06,0,1,1,1.59-3.8l49.28,20.61A2.05,2.05,0,0,1,86.58,130Zm.11-15.79a2.07,2.07,0,0,1-2.7,1.1L34.71,94.67a2.07,2.07,0,0,1,1.6-3.81l49.28,20.61A2.06,2.06,0,0,1,86.69,114.17Z"/></svg>