<svg id="Layer_1" data-name="Layer 1" xmlns="http://www.w3.org/2000/svg" viewBox="0 0 200 200"><defs><style>.cls-1{fill:#4dd652;}.cls-2{fill:#11c5e3;}</style></defs><circle class="cls-1" cx="72.74" cy="73.46" r="19.31"/><path class="cls-2" d="M189.28,0H10.72A10.72,10.72,0,0,0,0,10.72V120.24A10.72,10.72,0,0,0,10.72,131h8A57.64,57.64,0,0,1,51.61,96.82a31.55,31.55,0,1,1,42.26,0A57.64,57.64,0,0,1,126.8,131h62.48A10.72,10.72,0,0,0,200,120.24V10.72A10.72,10.72,0,0,0,189.28,0ZM173,95.32h-31.6a6.12,6.12,0,0,1,0-12.24H173a6.12,6.12,0,1,1,0,12.24Zm0-27.45H120.86a6.12,6.12,0,0,1,0-12.24H173a6.12,6.12,0,1,1,0,12.24Zm0-27.44H129.84a6.13,6.13,0,0,1,0-12.25H173a6.13,6.13,0,0,1,0,12.25Z"/><path class="cls-1" d="M128.71,145.34H117.6a45.12,45.12,0,0,0-89.73,0H16.77A16.79,16.79,0,0,0,0,162.11v21.12A16.79,16.79,0,0,0,16.77,200H128.71a16.79,16.79,0,0,0,16.77-16.77V162.11A16.79,16.79,0,0,0,128.71,145.34Zm7.19,37.89a7.19,7.19,0,0,1-7.19,7.19H16.77a7.19,7.19,0,0,1-7.19-7.19V162.11a7.2,7.2,0,0,1,7.19-7.19H128.71a7.2,7.2,0,0,1,7.19,7.19Z"/></svg>