<svg id="Layer_1" data-name="Layer 1" xmlns="http://www.w3.org/2000/svg" viewBox="0 0 200 200"><defs><style>.cls-1{fill:#11c5e3;}.cls-2{fill:#4dd652;}</style></defs><path class="cls-1" d="M165.46.27H50.31a28.83,28.83,0,0,0-28.8,28.8V166.28c0,.17,0,.33,0,.5s0,.16,0,.24a21.48,21.48,0,0,0,20.7,20.7h.24c.17,0,.33,0,.5,0H167.63a10.88,10.88,0,0,0,10.86-10.87V13.3A13,13,0,0,0,165.46.27ZM72.24,55.58h54.64c0-3.33,0-6.33,0-9.33,0-4,2.4-6.47,6.18-6.47s6.26,2.52,6.26,6.42c0,5.07,0,10.15,0,15.22,0,4.2-2.31,6.57-6.45,6.57q-30.33,0-60.66,0c-4.08,0-6.58-2.45-6.55-6.32C65.69,58,68.23,55.59,72.24,55.58ZM67.73,80.93a6.16,6.16,0,0,1,10,3.48c2.53,10.83,10.19,18.08,21,19.85,12.42,2,25-6.37,27.89-18.61.48-2.07,1.18-4,3.08-5.16a5.92,5.92,0,0,1,6.73.07,5.37,5.37,0,0,1,2.55,5.82,36.23,36.23,0,0,1-2.44,8.24c-6.84,14.4-18.45,21.66-32,22.35-19.68-.07-34.72-12-38.69-28.86C65.19,85.36,65.4,82.85,67.73,80.93Zm100,96a.09.09,0,0,1-.08.08H43.49a11.2,11.2,0,1,1,0-22.39H167.71Z"/><path class="cls-2" d="M156.35,164.6H49.21a2.16,2.16,0,0,0,0,4.32H62.33v27.47a3.61,3.61,0,0,0,4.82,3.4l8.25-3a9.34,9.34,0,0,1,6.26,0l8.26,3a3.61,3.61,0,0,0,4.82-3.4V168.92h61.61a2.16,2.16,0,1,0,0-4.32Z"/></svg>