<svg id="Layer_1" data-name="Layer 1" xmlns="http://www.w3.org/2000/svg" viewBox="0 0 200 200"><defs><style>.cls-1{fill:#11c5e3;}.cls-2{fill:#4dd652;}</style></defs><path class="cls-1" d="M43.34,0A26.75,26.75,0,0,0,16.62,26.72V27C7.13,28.93,0,37,0,46.72V155.59c0,11.16,9.47,20.24,21.1,20.24H80.17V157.6l-18.82-9.06a12.91,12.91,0,0,1,0-23.26l57.22-27.53a29.21,29.21,0,0,1,25.51,0l5,2.38V0Zm72,26.48H28A15.35,15.35,0,0,1,43.34,11.39h93.44C134.11,20.09,125.5,26.48,115.3,26.48Z"/><path class="cls-2" d="M131.32,179a29.17,29.17,0,0,1-12.75-2.92L88.71,161.71v17.17a3.85,3.85,0,0,0,2.17,3.45l32.91,15.83a18.44,18.44,0,0,0,16,0l32.91-15.83a3.85,3.85,0,0,0,2.17-3.45V161.24l-30.84,14.83A29.18,29.18,0,0,1,131.32,179Z"/><path class="cls-2" d="M197.6,133l-14.14-6.8-2.75-1.33-40.33-19.4a20.84,20.84,0,0,0-18.11,0l-40.33,19.4-1.77.86L65.05,133a4.38,4.38,0,0,0,0,7.88l15.12,7.27,4.27,2.06,4.27,2,33.56,16.15a20.91,20.91,0,0,0,18.11,0l34.54-16.62,4.27-2,2.56-1.24v47.37a4.16,4.16,0,0,0,8.32,0V144.47l7.53-3.62a4.38,4.38,0,0,0,0-7.88Z"/></svg>