<svg id="Layer_1" data-name="Layer 1" xmlns="http://www.w3.org/2000/svg" viewBox="0 0 200 200"><defs><style>.cls-1{fill:none;}.cls-2{fill:#4dd652;}.cls-3{fill:#11c5e3;}</style></defs><path class="cls-1" d="M46.65,67.06l.36.8c.18.37.35.73.54,1.08A33.27,33.27,0,0,0,50,72.86c.3.42.61.84.94,1.26A40.68,40.68,0,0,0,62.27,84.23a13.19,13.19,0,0,0,1.4.71,9.25,9.25,0,0,0,3.56.82A8.33,8.33,0,0,0,72.41,84a11.79,11.79,0,0,0,2.87-3.13c.35-.6,2.56-4.63.83-8.58a9.72,9.72,0,0,0-4.21-4.42,38.67,38.67,0,0,1-5.8-4.14C58.39,57,56,49.05,56,42.68a22.68,22.68,0,0,0-9.15,8.51,15.67,15.67,0,0,0-1.5,12A23.9,23.9,0,0,0,46.65,67.06Z"/><path class="cls-1" d="M31.1,84.32c6.24,5.12,15.7,7.79,23.37,7.79A11.08,11.08,0,0,0,58,91.57l0,0a49.76,49.76,0,0,1-15.3-14.31A44.24,44.24,0,0,1,40,72.87c-.46-.89-.87-1.78-1.25-2.67-.11-.27-.24-.54-.34-.81A26.86,26.86,0,0,1,28,59.48a22.66,22.66,0,0,0-3.58,12A14.91,14.91,0,0,0,26,78.13,19.3,19.3,0,0,0,31.1,84.32Z"/><path class="cls-1" d="M175,44.34h-.55a5.25,5.25,0,0,0-5.26,5.25v8.95H119.37a5.26,5.26,0,0,0-5.26,5.26v.56a5.4,5.4,0,0,0,5.26,5.35h55.72a5.28,5.28,0,0,0,5.26-5.35V49.5A5.31,5.31,0,0,0,175,44.34Z"/><path class="cls-1" d="M136.72,48.32a8.63,8.63,0,0,0,2.75-.43h0a38.26,38.26,0,0,1-14-14.56c-.36-.69-.68-1.39-1-2.08-.09-.21-.19-.42-.27-.63a21,21,0,0,1-8.13-7.73,17.68,17.68,0,0,0-2.79,9.33,11.5,11.5,0,0,0,1.24,5.21C118.09,44.56,128.67,48.32,136.72,48.32Z"/><path class="cls-1" d="M130.63,28.79c.12.28.25.56.38.83l.31.63a27.57,27.57,0,0,0,1.9,3.06,31.9,31.9,0,0,0,9.58,8.86c.38.22.74.4,1.09.56a7.21,7.21,0,0,0,3.24.63A6.61,6.61,0,0,0,150.71,42a9.08,9.08,0,0,0,2.23-2.44c.39-.65,3.57-6.48-2.63-10.13a30.64,30.64,0,0,1-4.52-3.23A21.62,21.62,0,0,1,137.9,9.79a17.55,17.55,0,0,0-7.13,6.63,12.18,12.18,0,0,0-1.17,9.34A18.6,18.6,0,0,0,130.63,28.79Z"/><path class="cls-2" d="M157.86,27.24a15.06,15.06,0,0,0-4.19-3.54h0c-12.1-7.12-8.72-17.36-8.58-17.77l2-5.36-5.63,1c-.43.07-10.72,1.94-16.36,11.53a18,18,0,0,0-2.43,7.66,13,13,0,0,1-2.3-4.81l-1-5.61L114.93,14c-.34.28-8.26,7.1-8.26,18.23a18.08,18.08,0,0,0,2.81,9.71A52.76,52.76,0,0,0,97.22,61.6a76.27,76.27,0,0,1,39.6,38.47,22.53,22.53,0,0,0,32.37-15.51A5.64,5.64,0,0,1,174.72,80c.37,0,.74.09.93.09a5.48,5.48,0,0,1,4.42,6.46,33.63,33.63,0,0,1-38.65,26.64,75.37,75.37,0,0,1,2.24,18.27v.27c1.15.08,2.31.13,3.48.13A52.88,52.88,0,0,0,157.86,27.24ZM130.77,16.42a17.55,17.55,0,0,1,7.13-6.63,21.62,21.62,0,0,0,7.89,16.39,30.64,30.64,0,0,0,4.52,3.23c6.2,3.65,3,9.48,2.63,10.13A9.08,9.08,0,0,1,150.71,42a6.61,6.61,0,0,1-3.58,1.38,7.21,7.21,0,0,1-3.24-.63c-.35-.16-.71-.34-1.09-.56a31.9,31.9,0,0,1-9.58-8.86,27.57,27.57,0,0,1-1.9-3.06l-.31-.63c-.13-.27-.26-.55-.38-.83a18.6,18.6,0,0,1-1-3A12.18,12.18,0,0,1,130.77,16.42Zm-14.69,6.46a21,21,0,0,0,8.13,7.73c.08.21.18.42.27.63.29.69.61,1.39,1,2.08a38.26,38.26,0,0,0,14,14.56h0a8.63,8.63,0,0,1-2.75.43c-8.05,0-18.63-3.76-22.19-10.9a11.5,11.5,0,0,1-1.24-5.21A17.68,17.68,0,0,1,116.08,22.88Zm64.27,41.48a5.28,5.28,0,0,1-5.26,5.35H119.37a5.4,5.4,0,0,1-5.26-5.35V63.8a5.26,5.26,0,0,1,5.26-5.26h49.82V49.59a5.25,5.25,0,0,1,5.26-5.25H175a5.31,5.31,0,0,1,5.35,5.16Z"/><path class="cls-3" d="M81.59,65.07a19.82,19.82,0,0,0-5.38-4.54h0C60.68,51.4,65,38.26,65.21,37.73l2.51-6.88L60.5,32.09c-.56.1-13.76,2.48-21,14.79a23.05,23.05,0,0,0-3.11,9.83,16.59,16.59,0,0,1-3-6.17l-1.33-7.2-5.59,4.72c-.44.37-10.61,9.11-10.61,23.39A23.2,23.2,0,0,0,19.52,83.9,67.82,67.82,0,1,0,81.59,65.07ZM46.83,51.19A22.68,22.68,0,0,1,56,42.68c0,6.37,2.41,14.35,10.12,21a38.67,38.67,0,0,0,5.8,4.14,9.72,9.72,0,0,1,4.21,4.42c1.73,4-.48,8-.83,8.58A11.79,11.79,0,0,1,72.41,84a8.33,8.33,0,0,1-5.18,1.78,9.25,9.25,0,0,1-3.56-.82,13.19,13.19,0,0,1-1.4-.71A40.68,40.68,0,0,1,50.92,74.12c-.33-.42-.64-.84-.94-1.26a33.27,33.27,0,0,1-2.43-3.92c-.19-.35-.36-.71-.54-1.08l-.36-.8a23.9,23.9,0,0,1-1.32-3.88A15.67,15.67,0,0,1,46.83,51.19ZM28,59.48a26.86,26.86,0,0,0,10.43,9.91c.1.27.23.54.34.81.38.89.79,1.78,1.25,2.67a44.24,44.24,0,0,0,2.65,4.37A49.76,49.76,0,0,0,58,91.55l0,0a11.08,11.08,0,0,1-3.52.54c-7.67,0-17.13-2.67-23.37-7.79A19.3,19.3,0,0,1,26,78.13a14.91,14.91,0,0,1-1.58-6.68A22.66,22.66,0,0,1,28,59.48Zm82.09,81.73a43.2,43.2,0,0,1-84.74,0,4.82,4.82,0,0,1-.11-1.31,7.12,7.12,0,0,1,7.1-7.1h.12a7.11,7.11,0,0,1,7,5.8,28.94,28.94,0,0,0,56.69,0,7.24,7.24,0,0,1,7.1-5.8c.47,0,.94.12,1.18.12A7,7,0,0,1,110.08,141.21Zm.36-28.53a6.77,6.77,0,0,1-6.75,6.87H32.21a6.93,6.93,0,0,1-6.75-6.87V112a6.74,6.74,0,0,1,6.75-6.74H96.12V93.75A6.74,6.74,0,0,1,102.86,87h.71a6.83,6.83,0,0,1,6.87,6.63Z"/></svg>