<svg id="Layer_1" data-name="Layer 1" xmlns="http://www.w3.org/2000/svg" viewBox="0 0 200 200"><defs><style>.cls-1{fill:#4dd652;}.cls-2{fill:none;}.cls-3{fill:#11c5e3;}</style></defs><rect class="cls-1" x="26.79" y="36.58" width="55.49" height="48.08" rx="3.54"/><path class="cls-2" d="M141.73,55.1H103.14a4.65,4.65,0,0,0,0,9.3h38.59a4.65,4.65,0,1,0,0-9.3Z"/><path class="cls-2" d="M141.73,81H103.14a4.65,4.65,0,1,0,0,9.3h38.59a4.65,4.65,0,1,0,0-9.3Z"/><path class="cls-2" d="M141.73,132.93H26.41a4.65,4.65,0,1,0,0,9.3H141.73a4.65,4.65,0,1,0,0-9.3Z"/><rect class="cls-2" x="28.61" y="38.63" width="51.85" height="43.99" rx="0.25"/><path class="cls-2" d="M141.73,107H26.41a4.66,4.66,0,1,0,0,9.31H141.73a4.66,4.66,0,0,0,0-9.31Z"/><path class="cls-2" d="M141.73,31.34H103.14a4.65,4.65,0,0,0,0,9.3h38.59a4.65,4.65,0,1,0,0-9.3Z"/><path class="cls-1" d="M176.54,61.74l-.27,101.33A22.14,22.14,0,0,0,194,184.71c3,.67,4.93,1,6.21,1.16V90A28.73,28.73,0,0,0,176.54,61.74Z"/><path class="cls-3" d="M169.27,163.07l.28-103V21.89A21.92,21.92,0,0,0,147.66,0H21.7A21.92,21.92,0,0,0-.19,21.89V173.57A26.46,26.46,0,0,0,26.24,200h174v-7.09a59.63,59.63,0,0,1-7.68-1.36A29.13,29.13,0,0,1,169.27,163.07ZM21.61,38.88a7.25,7.25,0,0,1,7.25-7.25H80.2a7.25,7.25,0,0,1,7.26,7.25V82.37a7.26,7.26,0,0,1-7.26,7.25H28.86a7.26,7.26,0,0,1-7.25-7.25ZM141.73,142.23H26.41a4.65,4.65,0,1,1,0-9.3H141.73a4.65,4.65,0,1,1,0,9.3Zm0-25.94H26.41a4.66,4.66,0,1,1,0-9.31H141.73a4.66,4.66,0,0,1,0,9.31Zm0-25.95H103.14a4.65,4.65,0,1,1,0-9.3h38.59a4.65,4.65,0,1,1,0,9.3Zm0-25.94H103.14a4.65,4.65,0,0,1,0-9.3h38.59a4.65,4.65,0,1,1,0,9.3Zm0-23.76H103.14a4.65,4.65,0,0,1,0-9.3h38.59a4.65,4.65,0,1,1,0,9.3Z"/></svg>