<?xml version="1.0" standalone="no"?>
<!DOCTYPE svg PUBLIC "-//W3C//DTD SVG 20010904//EN"
 "http://www.w3.org/TR/2001/REC-SVG-20010904/DTD/svg10.dtd">
<svg version="1.0" xmlns="http://www.w3.org/2000/svg"
 width="436.000000pt" height="436.000000pt" viewBox="0 0 436.000000 436.000000"
 preserveAspectRatio="xMidYMid meet">
<metadata>
Created by potrace 1.14, written by Peter Selinger 2001-2017
</metadata>
<g transform="translate(0.000000,436.000000) scale(0.100000,-0.100000)"
fill="#000000" stroke="none">
<path d="M2050 4348 c-25 -5 -49 -10 -55 -12 -5 -2 -23 -6 -40 -11 -86 -23
-219 -107 -298 -188 -140 -144 -229 -366 -182 -453 18 -33 67 -64 103 -64 61
0 113 49 127 120 12 59 63 155 110 208 96 106 223 164 360 165 135 0 253 -46
343 -133 69 -66 100 -117 136 -225 26 -75 37 -93 66 -113 60 -40 140 -18 172
48 17 36 15 67 -9 150 -75 250 -294 450 -553 504 -74 15 -213 17 -280 4z"/>
<path d="M904 3402 c-118 -39 -189 -103 -244 -221 -20 -43 -20 -57 -20 -1470
l0 -1426 29 -60 c78 -162 265 -253 433 -209 41 10 196 83 223 104 6 4 37 22
70 40 136 73 193 105 248 136 32 19 60 34 62 34 2 0 32 16 67 36 259 147 328
174 434 168 52 -3 150 -33 179 -55 11 -8 46 -27 160 -89 44 -24 134 -73 200
-110 66 -37 152 -84 190 -105 39 -20 113 -61 165 -90 52 -29 115 -58 139 -65
187 -50 373 36 452 208 l29 62 -2 1433 -3 1432 -24 48 c-36 72 -109 142 -188
180 l-68 32 -1240 2 c-1128 1 -1245 0 -1291 -15z"/>
</g>
</svg>
