<svg width="130" height="115" viewBox="0 0 130 115" fill="none" xmlns="http://www.w3.org/2000/svg">
<path opacity="0.45" d="M10.4 5.3C10.4 8.2 8.10001 10.5 5.20001 10.5C2.30001 10.5 0 8.2 0 5.3C0 2.4 2.30001 0.100001 5.20001 0.100001C8.10001 1.05798e-06 10.4 2.4 10.4 5.3Z" fill="#D9D9D9"/>
<path opacity="0.45" d="M10.4 31.3C10.4 34.2 8.10001 36.5 5.20001 36.5C2.30001 36.5 0 34.2 0 31.3C0 28.4 2.30001 26.1 5.20001 26.1C8.10001 26 10.4 28.4 10.4 31.3Z" fill="#D9D9D9"/>
<path opacity="0.45" d="M10.4 57.3C10.4 60.2 8.10001 62.5 5.20001 62.5C2.30001 62.5 0 60.2 0 57.3C0 54.4 2.30001 52.1 5.20001 52.1C8.10001 52.1 10.4 54.4 10.4 57.3Z" fill="#D9D9D9"/>
<path opacity="0.45" d="M10.4 83.3C10.4 86.2 8.10001 88.5 5.20001 88.5C2.30001 88.5 0 86.2 0 83.3C0 80.4 2.30001 78.1 5.20001 78.1C8.10001 78.1 10.4 80.4 10.4 83.3Z" fill="#D9D9D9"/>
<path opacity="0.45" d="M10.4 109.3C10.4 112.2 8.10001 114.5 5.20001 114.5C2.30001 114.5 0 112.2 0 109.3C0 106.4 2.30001 104.1 5.20001 104.1C8.10001 104.1 10.4 106.4 10.4 109.3Z" fill="#D9D9D9"/>
<path opacity="0.45" d="M28.8992 10.5C31.7711 10.5 34.0992 8.17189 34.0992 5.30001C34.0992 2.42813 31.7711 0.100006 28.8992 0.100006C26.0273 0.100006 23.6992 2.42813 23.6992 5.30001C23.6992 8.17189 26.0273 10.5 28.8992 10.5Z" fill="#D9D9D9"/>
<path opacity="0.45" d="M34.2008 31.3C34.2008 34.2 31.9008 36.5 29.0008 36.5C26.1008 36.5 23.8008 34.2 23.8008 31.3C23.8008 28.4 26.1008 26.1 29.0008 26.1C31.8008 26 34.2008 28.4 34.2008 31.3Z" fill="#D9D9D9"/>
<path opacity="0.45" d="M34.2008 57.3C34.2008 60.2 31.9008 62.5 29.0008 62.5C26.1008 62.5 23.8008 60.2 23.8008 57.3C23.8008 54.4 26.1008 52.1 29.0008 52.1C31.8008 52.1 34.2008 54.4 34.2008 57.3Z" fill="#D9D9D9"/>
<path opacity="0.45" d="M28.8992 88.5C31.7711 88.5 34.0992 86.1719 34.0992 83.3C34.0992 80.4281 31.7711 78.1 28.8992 78.1C26.0273 78.1 23.6992 80.4281 23.6992 83.3C23.6992 86.1719 26.0273 88.5 28.8992 88.5Z" fill="#D9D9D9"/>
<path opacity="0.45" d="M34.2008 109.3C34.2008 112.2 31.9008 114.5 29.0008 114.5C26.1008 114.5 23.8008 112.2 23.8008 109.3C23.8008 106.4 26.1008 104.1 29.0008 104.1C31.8008 104.1 34.2008 106.4 34.2008 109.3Z" fill="#D9D9D9"/>
<path opacity="0.45" d="M58.0016 5.3C58.0016 8.2 55.7015 10.5 52.8015 10.5C49.9015 10.5 47.6016 8.2 47.6016 5.3C47.6016 2.4 49.9015 0.100001 52.8015 0.100001C55.6015 1.05798e-06 58.0016 2.4 58.0016 5.3Z" fill="#D9D9D9"/>
<path opacity="0.45" d="M58.0016 31.3C58.0016 34.2 55.7015 36.5 52.8015 36.5C49.9015 36.5 47.6016 34.2 47.6016 31.3C47.6016 28.4 49.9015 26.1 52.8015 26.1C55.6015 26 58.0016 28.4 58.0016 31.3Z" fill="#D9D9D9"/>
<path opacity="0.45" d="M58.0016 57.3C58.0016 60.2 55.7015 62.5 52.8015 62.5C49.9015 62.5 47.6016 60.2 47.6016 57.3C47.6016 54.4 49.9015 52.1 52.8015 52.1C55.6015 52.1 58.0016 54.4 58.0016 57.3Z" fill="#D9D9D9"/>
<path opacity="0.45" d="M58.0016 83.3C58.0016 86.2 55.7015 88.5 52.8015 88.5C49.9015 88.5 47.6016 86.2 47.6016 83.3C47.6016 80.4 49.9015 78.1 52.8015 78.1C55.6015 78.1 58.0016 80.4 58.0016 83.3Z" fill="#D9D9D9"/>
<path opacity="0.45" d="M58.0016 109.3C58.0016 112.2 55.7015 114.5 52.8015 114.5C49.9015 114.5 47.6016 112.2 47.6016 109.3C47.6016 106.4 49.9015 104.1 52.8015 104.1C55.6015 104.1 58.0016 106.4 58.0016 109.3Z" fill="#D9D9D9"/>
<path opacity="0.45" d="M76.5008 10.5C79.3727 10.5 81.7008 8.17189 81.7008 5.30001C81.7008 2.42813 79.3727 0.100006 76.5008 0.100006C73.6289 0.100006 71.3008 2.42813 71.3008 5.30001C71.3008 8.17189 73.6289 10.5 76.5008 10.5Z" fill="#D9D9D9"/>
<path opacity="0.45" d="M81.7008 31.3C81.7008 34.2 79.4008 36.5 76.5008 36.5C73.6008 36.5 71.3008 34.2 71.3008 31.3C71.3008 28.4 73.6008 26.1 76.5008 26.1C79.4008 26 81.7008 28.4 81.7008 31.3Z" fill="#D9D9D9"/>
<path opacity="0.45" d="M81.7008 57.3C81.7008 60.2 79.4008 62.5 76.5008 62.5C73.6008 62.5 71.3008 60.2 71.3008 57.3C71.3008 54.4 73.6008 52.1 76.5008 52.1C79.4008 52.1 81.7008 54.4 81.7008 57.3Z" fill="#D9D9D9"/>
<path opacity="0.45" d="M76.5008 88.5C79.3727 88.5 81.7008 86.1719 81.7008 83.3C81.7008 80.4281 79.3727 78.1 76.5008 78.1C73.6289 78.1 71.3008 80.4281 71.3008 83.3C71.3008 86.1719 73.6289 88.5 76.5008 88.5Z" fill="#D9D9D9"/>
<path opacity="0.45" d="M81.7008 109.3C81.7008 112.2 79.4008 114.5 76.5008 114.5C73.6008 114.5 71.3008 112.2 71.3008 109.3C71.3008 106.4 73.6008 104.1 76.5008 104.1C79.4008 104.1 81.7008 106.4 81.7008 109.3Z" fill="#D9D9D9"/>
<path opacity="0.45" d="M100.302 10.5C103.173 10.5 105.502 8.17189 105.502 5.30001C105.502 2.42813 103.173 0.100006 100.302 0.100006C97.4297 0.100006 95.1016 2.42813 95.1016 5.30001C95.1016 8.17189 97.4297 10.5 100.302 10.5Z" fill="#D9D9D9"/>
<path opacity="0.45" d="M105.502 31.3C105.502 34.2 103.202 36.5 100.302 36.5C97.4015 36.5 95.1016 34.2 95.1016 31.3C95.1016 28.4 97.4015 26.1 100.302 26.1C103.202 26 105.502 28.4 105.502 31.3Z" fill="#D9D9D9"/>
<path opacity="0.45" d="M105.502 57.3C105.502 60.2 103.202 62.5 100.302 62.5C97.4015 62.5 95.1016 60.2 95.1016 57.3C95.1016 54.4 97.4015 52.1 100.302 52.1C103.202 52.1 105.502 54.4 105.502 57.3Z" fill="#D9D9D9"/>
<path opacity="0.45" d="M100.302 88.5C103.173 88.5 105.502 86.1719 105.502 83.3C105.502 80.4281 103.173 78.1 100.302 78.1C97.4297 78.1 95.1016 80.4281 95.1016 83.3C95.1016 86.1719 97.4297 88.5 100.302 88.5Z" fill="#D9D9D9"/>
<path opacity="0.45" d="M105.502 109.3C105.502 112.2 103.202 114.5 100.302 114.5C97.4015 114.5 95.1016 112.2 95.1016 109.3C95.1016 106.4 97.4015 104.1 100.302 104.1C103.202 104.1 105.502 106.4 105.502 109.3Z" fill="#D9D9D9"/>
<path opacity="0.45" d="M129.298 5.3C129.298 8.2 126.998 10.5 124.098 10.5C121.198 10.5 118.898 8.2 118.898 5.3C118.898 2.4 121.198 0.100001 124.098 0.100001C126.898 1.05798e-06 129.298 2.4 129.298 5.3Z" fill="#D9D9D9"/>
<path opacity="0.45" d="M129.298 31.3C129.298 34.2 126.998 36.5 124.098 36.5C121.198 36.5 118.898 34.2 118.898 31.3C118.898 28.4 121.198 26.1 124.098 26.1C126.898 26 129.298 28.4 129.298 31.3Z" fill="#D9D9D9"/>
<path opacity="0.45" d="M129.298 57.3C129.298 60.2 126.998 62.5 124.098 62.5C121.198 62.5 118.898 60.2 118.898 57.3C118.898 54.4 121.198 52.1 124.098 52.1C126.898 52.1 129.298 54.4 129.298 57.3Z" fill="#D9D9D9"/>
<path opacity="0.45" d="M129.298 83.3C129.298 86.2 126.998 88.5 124.098 88.5C121.198 88.5 118.898 86.2 118.898 83.3C118.898 80.4 121.198 78.1 124.098 78.1C126.898 78.1 129.298 80.4 129.298 83.3Z" fill="#D9D9D9"/>
<path opacity="0.45" d="M129.298 109.3C129.298 112.2 126.998 114.5 124.098 114.5C121.198 114.5 118.898 112.2 118.898 109.3C118.898 106.4 121.198 104.1 124.098 104.1C126.898 104.1 129.298 106.4 129.298 109.3Z" fill="#D9D9D9"/>
</svg>
