<svg width="625" height="127" viewBox="0 0 625 127" fill="none" xmlns="http://www.w3.org/2000/svg">
<path d="M0.864068 41.7861C0.510444 39.5229 0.917111 37.5338 2.08407 35.8187C3.25102 34.0859 4.83349 32.7157 6.83146 31.7078C8.84711 30.7 10.9512 30.1607 13.1436 30.09C15.3361 30.0016 17.2722 30.4967 18.9519 31.5752C20.6316 32.6361 21.7278 34.3688 22.2406 36.7735C22.7357 40.0268 22.1433 42.7143 20.4636 44.8361C18.7839 46.9401 16.618 48.2486 13.9658 48.7613C12.2684 49.0619 10.6064 49.0884 8.97972 48.8409C7.37073 48.5757 6.09769 48.1159 5.16059 47.4617C4.29421 46.8252 3.42784 46.003 2.56146 44.9952C1.69508 43.9874 1.12929 42.9177 0.864068 41.7861ZM16.5649 40.6191C17.3075 39.4522 17.4048 38.3117 16.8567 37.1978C16.3262 36.0839 15.451 35.2264 14.231 34.6252C13.0287 34.0064 11.7645 33.8914 10.4384 34.2804C9.13001 34.6517 8.0603 35.748 7.22928 37.5691C6.57508 39.2135 6.53972 40.4865 7.1232 41.3883C7.70668 42.2723 8.60842 42.8204 9.82842 43.0326C11.0484 43.2448 12.2949 43.1475 13.568 42.7409C14.841 42.3165 15.84 41.6093 16.5649 40.6191ZM35.0479 36.3226C35.4192 38.6212 35.4546 40.9374 35.154 43.2713C34.8711 45.6052 34.155 47.7535 33.0057 49.7161C31.8741 51.6787 30.2121 53.2523 28.0196 54.437C27.0472 54.9497 25.9951 55.3387 24.8635 55.6039C23.7496 55.8868 22.6357 55.9487 21.5218 55.7896C21.0798 55.7365 20.5759 55.5862 20.0101 55.3387C19.4266 55.0912 19.0818 54.7287 18.9757 54.2513C18.9404 53.827 19.1349 53.4468 19.5592 53.1109C19.9835 52.7926 20.4698 52.5186 21.0179 52.2887C21.5483 52.0765 21.9638 51.9351 22.2644 51.8643C24.0325 51.3339 25.4647 50.441 26.5609 49.1857C27.6749 47.948 28.5324 46.4716 29.1335 44.7565C29.6109 43.2006 29.7435 41.6093 29.5314 39.9826C29.4783 39.3461 29.4076 38.7096 29.3192 38.073C29.2131 37.3128 29.1335 36.5436 29.0805 35.7657C29.0275 35.3236 29.0186 34.8462 29.054 34.3335C29.107 33.8207 29.2573 33.3699 29.5049 32.9809C29.7524 32.6449 30.0706 32.4062 30.4596 32.2648C30.8486 32.1233 31.2464 32.0349 31.6531 31.9996C32.0598 31.9642 32.4664 31.9819 32.8731 32.0526C33.2975 32.1233 33.6599 32.3178 33.9605 32.6361C34.2788 33.0074 34.5086 33.5025 34.6501 34.1213C34.7915 34.7401 34.8976 35.3325 34.9683 35.8983C34.986 36.0397 35.0125 36.1812 35.0479 36.3226ZM47.5621 42.953C48.7998 42.8646 49.5601 42.3784 49.843 41.4943C50.1436 40.6103 50.0021 39.7528 49.4186 38.9217C48.8352 38.073 47.8273 37.6575 46.3952 37.6752C45.6702 37.7283 45.0602 38.02 44.5652 38.5504C44.0878 39.0809 43.9021 39.7704 44.0082 40.6191C44.132 41.2733 44.5386 41.8303 45.2282 42.29C45.9354 42.732 46.7134 42.953 47.5621 42.953ZM46.7134 47.223C45.016 47.2054 43.4601 46.7191 42.0456 45.7643C40.6488 44.8096 39.7028 43.4481 39.2078 41.68C38.8895 40.3362 38.9691 38.9836 39.4465 37.6222C39.9239 36.243 40.7372 35.0672 41.8865 34.0948C43.0534 33.1046 44.5121 32.53 46.2626 32.3709C48.897 32.2294 50.9127 32.9897 52.3095 34.6517C53.4765 36.1193 54.0599 37.7725 54.0599 39.6113C54.1837 42.6171 53.6798 45.4638 52.5482 48.1513C51.4343 50.8388 49.507 52.9341 46.7665 54.437C45.7763 54.9497 44.7154 55.3387 43.5839 55.6039C42.4699 55.8868 41.356 55.9575 40.2421 55.8161C39.8178 55.763 39.3139 55.6128 38.7304 55.3652C38.1469 55.1177 37.8021 54.7464 37.696 54.2513C37.6783 53.8446 37.8817 53.4733 38.306 53.1374C38.7304 52.8191 39.2078 52.5451 39.7382 52.3152C40.2686 52.103 40.6841 51.9528 40.9847 51.8643C43.6015 51.051 45.5111 49.5039 46.7134 47.223ZM69.2328 38.3913C68.7731 36.8884 67.332 35.4562 64.9097 34.0948C63.6013 33.3875 62.5935 32.6891 61.8862 31.9996C61.1967 31.1509 60.9403 30.2845 61.1171 29.4004C61.3116 28.5164 61.8155 27.8622 62.6288 27.4378C63.4599 26.9958 64.5119 27.04 65.7849 27.5704C67.1817 28.2423 68.9764 29.4977 71.1688 31.3365C73.2552 33.2107 74.4841 35.4386 74.8554 38.02L74.8819 37.9935C74.8996 38.2057 74.9084 38.4178 74.9084 38.63C74.9084 40.4158 74.5371 41.9983 73.7945 43.3774C72.7159 45.2516 71.1512 46.6838 69.1002 47.6739C67.0668 48.6464 64.8832 49.1857 62.5493 49.2917C60.3038 49.3448 58.6948 48.9912 57.7223 48.2309C56.7675 47.4706 56.3078 46.6219 56.3432 45.6848C56.3962 44.73 56.8029 44.0139 57.5632 43.5365C58.1467 43.289 59.2075 43.2006 60.7458 43.2713C61.6652 43.289 62.6288 43.2713 63.6367 43.2183C66.112 43.0768 67.7564 42.5817 68.5697 41.733C69.3831 40.8843 69.6041 39.7704 69.2328 38.3913ZM121.085 13.7261C121.332 13.6377 122.42 13.0542 124.347 11.9757C126.292 10.8971 128.529 9.6329 131.057 8.18304C133.586 6.71551 135.884 5.38058 137.953 4.17826C139.968 3.0113 141.25 2.26869 141.798 1.95043C143.602 1.08406 144.733 0.818839 145.193 1.15478C145.671 1.49072 145.653 2.14493 145.14 3.11739C144.627 4.07217 143.788 5.04464 142.621 6.03478C140.994 7.41391 138.554 9.26159 135.301 11.5778C132.065 13.8764 128.785 15.9362 125.461 17.7574C122.137 19.5785 119.556 20.4449 117.717 20.3565C116.019 20.0559 115.657 19.1365 116.629 17.5983C117.372 16.4136 118.857 15.1229 121.085 13.7261ZM132.861 49C131.994 49 131.039 48.8674 129.996 48.6022C128.971 48.337 127.972 47.9126 126.999 47.3291C125.267 46.1445 123.861 44.6416 122.782 42.8204C122.163 43.4039 121.456 43.952 120.661 44.4648C117.619 46.3743 114.066 47.6828 109.999 48.39C105.932 49.0796 101.919 49.1945 97.958 48.7348C93.9974 48.2574 90.6645 47.223 87.9593 45.6317C84.759 43.6161 82.8494 41.2645 82.2306 38.577C81.6117 35.8717 82.54 33.3345 85.0154 30.9652C87.4907 28.5783 91.7784 26.872 97.8784 25.8465C98.9393 25.6874 100.318 25.5548 102.016 25.4487C103.713 25.3426 105.083 25.3514 106.127 25.4752C107.028 25.6343 107.665 25.9703 108.036 26.483C108.425 26.9781 108.558 27.4732 108.434 27.9683C108.31 28.4633 107.939 28.7728 107.32 28.8965C106.825 28.9672 106.047 29.038 104.986 29.1087C103.483 29.1971 101.715 29.3651 99.6819 29.6126C97.6486 29.8601 95.6683 30.2757 93.741 30.8591C90.2402 32.0614 88.2068 33.4052 87.641 34.8904C87.0752 36.358 87.5615 37.7636 89.0997 39.1074C90.6557 40.4512 92.8481 41.5474 95.6771 42.3961C98.3116 43.1387 101.388 43.4746 104.907 43.4039C108.425 43.3155 111.696 42.6701 114.72 41.4678C117.054 40.5307 118.565 39.4522 119.255 38.2322C119.962 36.9945 119.953 35.1999 119.228 32.8483C118.645 30.9741 117.964 29.1175 117.186 27.2787C116.886 26.5361 116.603 25.8377 116.338 25.1835C116.143 23.9458 116.391 22.9822 117.08 22.2926C117.77 21.5854 118.733 21.3997 119.971 21.7357C120.961 22.0893 121.651 22.8142 122.04 23.9104C122.411 24.9006 122.835 26.1206 123.313 27.5704C123.755 28.9319 124.241 30.3641 124.771 31.867C124.878 32.1675 124.992 32.4858 125.116 32.8217C125.47 33.8826 125.885 34.9965 126.363 36.1635C126.84 37.3304 127.406 38.4355 128.06 39.4787C128.714 40.5042 129.492 41.3441 130.394 41.9983C131.296 42.6525 132.357 42.9796 133.577 42.9796H133.63C134.142 42.9796 134.638 43.1122 135.115 43.3774C135.592 43.6249 135.964 43.9962 136.229 44.4913C136.512 44.9687 136.653 45.4638 136.653 45.9765C136.653 46.507 136.521 47.0109 136.255 47.4883C135.99 47.9657 135.619 48.337 135.141 48.6022C134.664 48.8674 134.16 49 133.63 49H132.861ZM151.639 42.9796C152.152 42.9796 152.647 43.1122 153.125 43.3774C153.602 43.6249 153.973 43.9962 154.239 44.4913C154.521 44.9687 154.663 45.4638 154.663 45.9765C154.663 46.507 154.53 47.0109 154.265 47.4883C154 47.9657 153.629 48.337 153.151 48.6022C152.674 48.8674 152.17 49 151.639 49C151.021 49.0177 150.411 49.0177 149.809 49C147.935 49.0354 146.088 48.6994 144.266 47.9922C142.445 47.2672 141.048 46.0738 140.076 44.4117C139.528 45.7909 138.67 46.8959 137.503 47.727C136.425 48.4872 135.24 48.9028 133.949 48.9735C133.861 48.9912 133.764 49 133.658 49H133.578C133.101 48.9823 132.632 48.8497 132.172 48.6022C131.695 48.337 131.324 47.9657 131.059 47.4883C130.793 47.0109 130.661 46.507 130.661 45.9765C130.661 45.4638 130.793 44.9687 131.059 44.4913C131.324 43.9962 131.704 43.6161 132.199 43.3509C132.659 43.121 133.118 42.9972 133.578 42.9796H133.737C134.975 42.9796 135.903 42.7939 136.522 42.4226C137.141 42.0513 137.583 41.5916 137.848 41.0435C138.096 40.5307 138.237 39.9561 138.272 39.3196C138.326 38.683 138.334 38.0023 138.299 37.2774C138.246 36.2696 138.281 35.2441 138.405 34.2009C138.582 33.193 139.015 32.5035 139.705 32.1322C140.412 31.7609 141.11 31.8404 141.8 32.3709C142.489 32.9013 142.923 34.0064 143.099 35.6861C143.135 36.0397 143.188 36.3845 143.259 36.7204C143.329 37.1978 143.391 37.6575 143.444 38.0996C143.621 38.9306 144.001 39.7174 144.585 40.46C145.186 41.1849 146.043 41.7861 147.157 42.2635C148.289 42.7409 149.783 42.9796 151.639 42.9796ZM140.633 53.5087C142.613 53.7032 144.063 54.0568 144.982 54.5696C145.92 55.0823 146.132 55.6039 145.619 56.1343C145.124 56.6648 143.709 57.0626 141.376 57.3278C140.156 57.487 138.635 57.6638 136.814 57.8583C135.01 58.0528 133.384 58.15 131.934 58.15C131.792 58.15 131.642 58.15 131.483 58.15C130.687 58.1677 130.051 58.0881 129.573 57.9113C129.078 57.7345 128.831 57.2394 128.831 56.4261C128.919 55.4183 129.45 54.6933 130.422 54.2513C131.377 53.8093 132.508 53.5441 133.817 53.4557C135.125 53.3849 136.319 53.3584 137.397 53.3761C137.733 53.3938 138.034 53.4026 138.299 53.4026C138.405 53.4026 138.52 53.4026 138.644 53.4026C139.298 53.3849 139.607 53.3761 139.572 53.3761C139.537 53.3938 139.89 53.438 140.633 53.5087ZM170.591 43.0061C170.715 42.9884 170.839 42.9796 170.962 42.9796C171.475 42.9796 171.97 43.1122 172.447 43.3774C172.925 43.6249 173.296 43.9962 173.561 44.4913C173.844 44.9687 173.986 45.4638 173.986 45.9765C173.986 46.507 173.853 47.0109 173.588 47.4883C173.323 47.9657 172.951 48.337 172.474 48.6022C171.997 48.8674 171.493 49 170.962 49H170.803C170.078 49.0177 169.221 48.9558 168.231 48.8143C167.24 48.6552 166.259 48.3635 165.287 47.9391C163.961 47.3203 162.926 46.4539 162.184 45.34C161.582 46.0119 160.884 46.5954 160.088 47.0904C158.073 48.3458 155.261 48.9823 151.654 49H151.628C151.115 49 150.62 48.8674 150.143 48.6022C149.665 48.337 149.294 47.9657 149.029 47.4883C148.764 47.0109 148.631 46.507 148.631 45.9765C148.631 45.4638 148.764 44.9687 149.029 44.4913C149.294 43.9962 149.665 43.6249 150.143 43.3774C150.62 43.1122 151.115 42.9796 151.628 42.9796C153.166 42.9796 154.457 42.8116 155.5 42.4757C156.526 42.1397 157.357 41.6888 157.993 41.123C159.125 40.1506 159.726 38.8864 159.797 37.3304V37.0122L159.584 22.9291C159.637 21.0372 160.115 19.8349 161.017 19.3222C161.918 18.8094 162.829 18.8359 163.748 19.4017C164.65 19.9499 165.136 20.8781 165.207 22.1865L165.313 32.7422V33.4583C165.331 33.8826 165.34 34.2981 165.34 34.7048V34.917C165.34 35.2529 165.34 35.5535 165.34 35.8187C165.357 36.0662 165.402 36.3757 165.472 36.747C165.667 37.8786 165.941 38.9217 166.294 39.8765C166.666 40.8136 167.214 41.5651 167.939 42.1309C168.611 42.679 169.495 42.9707 170.591 43.0061ZM178.156 16.1661C178.404 16.0954 179.491 15.5207 181.418 14.4422C183.363 13.3459 185.6 12.0729 188.128 10.623C190.657 9.15551 192.955 7.82058 195.024 6.61826C197.04 5.4513 198.321 4.71754 198.87 4.41695C200.673 3.5329 201.805 3.25884 202.264 3.59478C202.742 3.93072 202.724 4.58493 202.211 5.55739C201.699 6.51217 200.859 7.48464 199.692 8.47478C198.065 9.85391 195.625 11.7016 192.372 14.0178C189.136 16.3341 185.856 18.4028 182.532 20.2239C179.208 22.0451 176.627 22.9026 174.788 22.7965C173.09 22.4959 172.728 21.5854 173.7 20.0648C174.443 18.8625 175.928 17.5629 178.156 16.1661ZM170.81 42.9796H171.26C173.029 42.9442 174.39 42.6436 175.345 42.0778C176.3 41.512 176.857 40.7783 177.016 39.8765C177.192 38.6388 176.98 37.1271 176.379 35.3413C175.796 33.5555 175.133 31.7874 174.39 30.037C174.036 29.1883 173.709 28.3926 173.409 27.65C173.214 26.3946 173.462 25.4222 174.151 24.7326C174.841 24.043 175.804 23.8662 177.042 24.2022C178.032 24.5558 178.722 25.2719 179.111 26.3504C179.429 27.1814 179.783 28.039 180.172 28.923C180.844 30.479 181.445 32.0526 181.975 33.6439C182.506 35.2352 182.797 36.7735 182.85 38.2587C182.744 41.512 181.524 44.1288 179.19 46.1091C176.874 48.0894 174.081 49.053 170.81 49C170.297 49 169.802 48.8674 169.324 48.6022C168.847 48.337 168.476 47.9657 168.21 47.4883C167.945 47.0109 167.813 46.507 167.813 45.9765C167.813 45.4638 167.945 44.9687 168.21 44.4913C168.476 43.9962 168.847 43.6249 169.324 43.3774C169.802 43.1122 170.297 42.9796 170.81 42.9796ZM212.673 43.0061V49C210.905 49 209.5 48.5757 208.456 47.727C207.413 46.8783 206.573 45.6848 205.937 44.1465C204.805 45.9854 203.364 47.3026 201.614 48.0983C199.863 48.8762 197.945 49.3006 195.859 49.3713C193.613 49.4067 192.013 49.0442 191.058 48.2839C190.103 47.5236 189.644 46.6749 189.679 45.7378C189.714 44.8007 190.112 44.0846 190.873 43.5896C191.456 43.342 192.526 43.2536 194.082 43.3243C195.001 43.3597 195.965 43.3509 196.973 43.2978C199.306 43.1564 200.898 42.7055 201.746 41.9452C202.595 41.1672 202.896 40.1506 202.648 38.8952C202.401 37.6222 201.799 36.19 200.845 34.5987C200.067 33.3257 199.545 32.2029 199.28 31.2304C199.103 30.1696 199.315 29.3032 199.916 28.6313C200.518 27.9417 201.278 27.6235 202.197 27.6765C203.134 27.7119 204.027 28.2688 204.876 29.3474C205.477 30.3022 206.158 31.7255 206.918 33.6174C207.148 34.1655 207.387 34.7313 207.634 35.3148C207.935 36.0574 208.2 36.853 208.43 37.7017C208.731 39.0101 209.173 40.1771 209.756 41.2026C210.339 42.2281 211.312 42.8293 212.673 43.0061ZM230.696 42.9796V49C230.077 49.0177 229.467 49.0177 228.866 49C226.992 49.0354 225.144 48.6994 223.323 47.9922C221.502 47.2672 220.105 46.0738 219.132 44.4117C218.584 45.7909 217.718 46.8959 216.533 47.727C215.366 48.558 214.067 48.9823 212.634 49V42.9796C213.961 42.9972 214.933 42.8204 215.552 42.4491C216.188 42.0601 216.639 41.5916 216.904 41.0435C217.152 40.5307 217.293 39.9561 217.329 39.3196C217.382 38.683 217.391 38.0023 217.355 37.2774C217.302 36.2696 217.338 35.2441 217.461 34.2009C217.638 33.193 218.071 32.5035 218.761 32.1322C219.468 31.7609 220.167 31.8404 220.856 32.3709C221.546 32.9013 221.979 34.0064 222.156 35.6861C222.191 36.0397 222.244 36.3845 222.315 36.7204C222.386 37.1978 222.448 37.6575 222.501 38.0996C222.677 38.9306 223.058 39.7174 223.641 40.46C224.242 41.1849 225.1 41.7861 226.214 42.2635C227.345 42.7409 228.839 42.9796 230.696 42.9796ZM230.696 42.9796C231.209 42.9796 231.704 43.1122 232.181 43.3774C232.658 43.6249 233.03 43.9962 233.295 44.4913C233.578 44.9687 233.719 45.4638 233.719 45.9765C233.719 46.507 233.587 47.0109 233.321 47.4883C233.056 47.9657 232.685 48.337 232.207 48.6022C231.73 48.8674 231.226 49 230.696 49C230.183 49 229.679 48.8674 229.184 48.6022C228.707 48.337 228.335 47.9657 228.07 47.4883C227.823 47.0109 227.699 46.507 227.699 45.9765C227.699 45.4638 227.831 44.9687 228.097 44.4913C228.362 43.9962 228.733 43.6249 229.211 43.3774C229.688 43.1122 230.183 42.9796 230.696 42.9796ZM212.714 42.9796C213.227 42.9796 213.722 43.1122 214.199 43.3774C214.677 43.6249 215.048 43.9962 215.313 44.4913C215.596 44.9687 215.738 45.4638 215.738 45.9765C215.738 46.507 215.605 47.0109 215.34 47.4883C215.074 47.9657 214.703 48.337 214.226 48.6022C213.748 48.8674 213.244 49 212.714 49C212.201 49 211.706 48.8674 211.229 48.6022C210.751 48.337 210.38 47.9657 210.115 47.4883C209.85 47.0109 209.717 46.507 209.717 45.9765C209.717 45.4638 209.85 44.9687 210.115 44.4913C210.38 43.9962 210.76 43.6249 211.255 43.3774C211.733 43.1122 212.219 42.9796 212.714 42.9796ZM216.507 20.9665C217.815 20.6129 219.017 20.719 220.114 21.2848C221.21 21.8329 221.917 22.6462 222.235 23.7248C222.501 25.0332 222.253 26.1206 221.493 26.987C220.75 27.8533 219.919 28.4014 219 28.6313C217.179 28.9849 215.737 28.649 214.677 27.6235C213.633 26.5803 213.2 25.378 213.377 24.0165C213.572 22.6551 214.615 21.6384 216.507 20.9665ZM230.737 49C230.225 49 229.729 48.8674 229.252 48.6022C228.775 48.337 228.403 47.9657 228.138 47.4883C227.873 47.0109 227.74 46.5158 227.74 46.003C227.74 45.4726 227.882 44.9687 228.165 44.4913C228.43 44.0139 228.801 43.6426 229.279 43.3774C229.756 43.1122 230.242 42.9796 230.737 42.9796H232.223C233.832 42.9796 235.547 42.9088 237.368 42.7674C239.189 42.6083 240.975 42.1928 242.725 41.5209C244.476 40.849 246.04 39.7528 247.419 38.2322C246.712 37.8432 245.996 37.4012 245.271 36.9061C244.016 35.9867 242.716 35.2971 241.373 34.8374C240.099 34.5014 239.198 34.4926 238.667 34.8109C238.155 35.1291 237.774 35.58 237.527 36.1635C236.607 37.7901 235.741 38.4001 234.928 37.9935C234.132 37.5691 233.69 36.6762 233.602 35.3148C233.584 34.0948 234.07 32.9278 235.06 31.8139C236.068 30.7 237.553 30.0104 239.516 29.7452C241.479 29.48 243.901 30.0016 246.783 31.31C247.225 31.5222 247.649 31.7343 248.056 31.9465C249.329 32.6361 250.602 33.1665 251.875 33.5378C253.166 33.8914 254.925 34.0064 257.153 33.8826C257.772 33.8119 258.399 33.6881 259.036 33.5113C259.69 33.3345 260.336 33.2107 260.972 33.14C261.626 33.0693 262.263 33.1754 262.882 33.4583C263.607 33.8296 264.128 34.4219 264.446 35.2352C264.782 36.0309 264.685 36.853 264.155 37.7017C263.394 38.7449 262.51 39.408 261.503 39.6909C260.495 39.9561 259.443 40.0975 258.346 40.1152C256.95 40.0975 255.641 40.3451 254.421 40.8578C252.812 41.6888 251.194 42.5729 249.568 43.51C248.33 44.1996 247.101 44.8714 245.881 45.5257C243.919 46.5865 241.921 47.4352 239.887 48.0717C237.854 48.6906 235.741 49 233.549 49H230.737ZM239.198 58.8661C239.127 56.9742 239.578 55.2857 240.55 53.8004C241.523 52.3329 242.769 51.2367 244.29 50.5117C245.828 49.7868 247.402 49.6012 249.011 49.9548C250.744 50.4322 251.99 51.3604 252.75 52.7396C253.528 54.1364 253.493 55.6835 252.644 57.3809C251.636 59.0606 250.337 60.1833 248.746 60.7491C247.154 61.3326 245.651 61.5536 244.237 61.4122C242.822 61.2884 241.868 61.032 241.373 60.643C240.418 59.8297 240.223 59.2639 240.789 58.9457C241.355 58.6274 242.283 58.3799 243.574 58.203C244.953 58.0086 246.253 57.6638 247.473 57.1687C248.799 56.4968 249.417 55.7542 249.329 54.9409C249.241 54.1452 248.675 53.5794 247.632 53.2435C246.323 52.9075 245.094 53.0048 243.945 53.5352C242.796 54.0833 241.806 54.8525 240.975 55.8426C240.144 56.8328 239.551 57.8406 239.198 58.8661ZM302.707 42.9796C303.202 42.9796 303.68 43.1033 304.139 43.3509C304.617 43.6161 304.988 43.9962 305.253 44.4913C305.536 44.9687 305.678 45.4638 305.678 45.9765C305.678 46.507 305.545 47.0109 305.28 47.4883C305.015 47.9657 304.643 48.337 304.166 48.6022C303.706 48.8497 303.22 48.9823 302.707 49H301.381C302.796 51.44 303.167 53.5264 302.495 55.2591C301.823 56.9919 300.532 58.3887 298.623 59.4496C296.713 60.5104 294.6 61.253 292.284 61.6774C289.632 62.2078 286.962 62.2609 284.275 61.8365C281.393 61.3768 278.82 60.2983 276.557 58.6009C274.294 56.9035 272.676 54.5872 271.703 51.6522C270.943 49.3713 270.863 46.9755 271.465 44.4648C272.066 42.3607 273.127 40.5396 274.647 39.0013C276.186 37.4454 277.883 36.2165 279.739 35.3148C281.614 34.3954 283.364 33.8296 284.991 33.6174C286.777 33.4229 287.917 33.5909 288.412 34.1213C288.925 34.6341 288.332 35.3767 286.635 36.3491C286.175 36.5967 285.725 36.8354 285.282 37.0652C283.974 37.7017 282.728 38.4267 281.543 39.24C280.376 40.0357 279.324 41.1407 278.387 42.5552C277.131 44.6239 276.645 46.6307 276.928 48.5757C277.211 50.5206 278.06 52.1826 279.474 53.5617C281.437 55.3829 283.797 56.4349 286.556 56.7178C289.331 57.0184 291.931 56.6736 294.353 55.6835C296.51 54.7641 297.801 53.7739 298.225 52.713C298.667 51.6522 298.34 50.7504 297.244 50.0078C296.148 49.2829 294.371 48.947 291.913 49C291.436 49.0354 290.932 49.0972 290.401 49.1857C289.499 49.3625 288.651 49.4067 287.855 49.3183C286.723 49.0884 286.016 48.4696 285.733 47.4617C285.45 46.4539 285.822 45.4726 286.847 44.5178C287.89 43.563 289.8 43.0591 292.576 43.0061L302.707 42.9796ZM320.76 42.9796C321.272 42.9796 321.767 43.1122 322.245 43.3774C322.722 43.6249 323.093 43.9962 323.359 44.4913C323.642 44.9687 323.783 45.4638 323.783 45.9765C323.783 46.507 323.65 47.0109 323.385 47.4883C323.12 47.9657 322.749 48.337 322.271 48.6022C321.794 48.8674 321.29 49 320.76 49C320.141 49.0177 319.531 49.0177 318.93 49C317.055 49.0354 315.208 48.6994 313.387 47.9922C311.565 47.2672 310.169 46.0738 309.196 44.4117C308.648 45.7909 307.79 46.8959 306.623 47.727C305.545 48.4872 304.36 48.9028 303.07 48.9735C302.981 48.9912 302.884 49 302.778 49H302.698C302.221 48.9823 301.752 48.8497 301.293 48.6022C300.815 48.337 300.444 47.9657 300.179 47.4883C299.913 47.0109 299.781 46.507 299.781 45.9765C299.781 45.4638 299.913 44.9687 300.179 44.4913C300.444 43.9962 300.824 43.6161 301.319 43.3509C301.779 43.121 302.239 42.9972 302.698 42.9796H302.857C304.095 42.9796 305.023 42.7939 305.642 42.4226C306.261 42.0513 306.703 41.5916 306.968 41.0435C307.216 40.5307 307.357 39.9561 307.393 39.3196C307.446 38.683 307.454 38.0023 307.419 37.2774C307.366 36.2696 307.401 35.2441 307.525 34.2009C307.702 33.193 308.135 32.5035 308.825 32.1322C309.532 31.7609 310.23 31.8404 310.92 32.3709C311.61 32.9013 312.043 34.0064 312.22 35.6861C312.255 36.0397 312.308 36.3845 312.379 36.7204C312.449 37.1978 312.511 37.6575 312.564 38.0996C312.741 38.9306 313.121 39.7174 313.705 40.46C314.306 41.1849 315.163 41.7861 316.277 42.2635C317.409 42.7409 318.903 42.9796 320.76 42.9796ZM312.034 23.1413C314.014 23.3358 315.464 23.6894 316.383 24.2022C317.321 24.7149 317.533 25.2365 317.02 25.767C316.525 26.2974 315.11 26.6952 312.777 26.9604C311.557 27.1196 310.036 27.2964 308.215 27.4909C306.411 27.6854 304.785 27.7826 303.335 27.7826C303.193 27.7826 303.043 27.7826 302.884 27.7826C302.088 27.8003 301.452 27.7207 300.974 27.5439C300.479 27.3671 300.232 26.872 300.232 26.0587C300.32 25.0509 300.851 24.3259 301.823 23.8839C302.778 23.4419 303.909 23.1855 305.218 23.1148C306.526 23.0264 307.72 22.991 308.798 23.0087C309.134 23.0264 309.435 23.0352 309.7 23.0352C309.806 23.0352 309.921 23.0352 310.045 23.0352C310.699 23.0175 311.008 23.0175 310.973 23.0352C310.938 23.0352 311.291 23.0706 312.034 23.1413ZM320.748 49C320.235 49 319.74 48.8674 319.263 48.6022C318.785 48.337 318.414 47.9657 318.149 47.4883C317.884 47.0109 317.751 46.5158 317.751 46.003C317.751 45.4726 317.893 44.9687 318.175 44.4913C318.441 44.0139 318.812 43.6426 319.289 43.3774C319.767 43.1122 320.253 42.9796 320.748 42.9796H322.233C323.842 42.9796 325.557 42.9088 327.378 42.7674C329.2 42.6083 330.985 42.1928 332.736 41.5209C334.486 40.849 336.051 39.7528 337.43 38.2322C336.723 37.8432 336.007 37.4012 335.282 36.9061C334.027 35.9867 332.727 35.2971 331.383 34.8374C330.11 34.5014 329.208 34.4926 328.678 34.8109C328.165 35.1291 327.785 35.58 327.538 36.1635C326.618 37.7901 325.752 38.4001 324.938 37.9935C324.143 37.5691 323.701 36.6762 323.612 35.3148C323.595 34.0948 324.081 32.9278 325.071 31.8139C326.079 30.7 327.564 30.0104 329.527 29.7452C331.489 29.48 333.912 30.0016 336.794 31.31C337.236 31.5222 337.66 31.7343 338.067 31.9465C339.34 32.6361 340.613 33.1665 341.886 33.5378C343.177 33.8914 344.936 34.0064 347.164 33.8826C347.783 33.8119 348.41 33.6881 349.047 33.5113C349.701 33.3345 350.346 33.2107 350.983 33.14C351.637 33.0693 352.274 33.1754 352.892 33.4583C353.617 33.8296 354.139 34.4219 354.457 35.2352C354.793 36.0309 354.696 36.853 354.165 37.7017C353.405 38.7449 352.521 39.408 351.513 39.6909C350.505 39.9561 349.453 40.0975 348.357 40.1152C346.96 40.0975 345.652 40.3451 344.432 40.8578C342.823 41.6888 341.205 42.5729 339.578 43.51C338.341 44.1996 337.112 44.8714 335.892 45.5257C333.929 46.5865 331.931 47.4352 329.898 48.0717C327.865 48.6906 325.752 49 323.559 49H320.748ZM363.089 21.9213C363.16 24.7326 363.116 28.3484 362.957 32.7687C362.798 37.1713 362.532 40.7341 362.161 43.457C361.825 45.5433 361.339 47.1081 360.702 48.1513C360.083 49.1945 359.491 49.4597 358.925 48.947C358.377 48.4165 358.032 46.8429 357.891 44.2261L357.467 23.7778C357.52 21.7622 357.988 20.4184 358.872 19.7465C359.774 19.0746 360.676 18.9509 361.578 19.3752C362.479 19.7996 362.983 20.6483 363.089 21.9213ZM375.731 36.3226C376.102 38.6212 376.137 40.9374 375.837 43.2713C375.554 45.6052 374.838 47.7535 373.688 49.7161C372.557 51.6787 370.895 53.2523 368.702 54.437C367.73 54.9497 366.678 55.3387 365.546 55.6039C364.432 55.8868 363.318 55.9487 362.204 55.7896C361.762 55.7365 361.258 55.5862 360.693 55.3387C360.109 55.0912 359.764 54.7287 359.658 54.2513C359.623 53.827 359.817 53.4468 360.242 53.1109C360.666 52.7926 361.152 52.5186 361.701 52.2887C362.231 52.0765 362.646 51.9351 362.947 51.8643C364.715 51.3339 366.147 50.441 367.244 49.1857C368.357 47.948 369.215 46.4716 369.816 44.7565C370.294 43.2006 370.426 41.6093 370.214 39.9826C370.161 39.3461 370.09 38.7096 370.002 38.073C369.896 37.3128 369.816 36.5436 369.763 35.7657C369.71 35.3236 369.701 34.8462 369.737 34.3335C369.79 33.8207 369.94 33.3699 370.187 32.9809C370.435 32.6449 370.753 32.4062 371.142 32.2648C371.531 32.1233 371.929 32.0349 372.336 31.9996C372.742 31.9642 373.149 31.9819 373.556 32.0526C373.98 32.1233 374.343 32.3178 374.643 32.6361C374.961 33.0074 375.191 33.5025 375.333 34.1213C375.474 34.7401 375.58 35.3325 375.651 35.8983C375.669 36.0397 375.695 36.1812 375.731 36.3226ZM409.36 42.9796C409.855 42.9796 410.341 43.1033 410.819 43.3509C411.296 43.6161 411.667 43.9962 411.933 44.4913C412.215 44.9687 412.357 45.4638 412.357 45.9765C412.357 46.507 412.224 47.0109 411.959 47.4883C411.694 47.9657 411.323 48.337 410.845 48.6022C410.368 48.8674 409.873 49 409.36 49H408.379C406.204 49.0177 404.241 48.6994 402.491 48.0452C400.758 47.3733 399.361 46.2506 398.3 44.677C397.257 43.0503 396.683 41.3971 396.576 39.7174C396.47 38.02 396.55 36.2519 396.815 34.413C397.027 33.0339 396.762 32.141 396.02 31.7343C395.277 31.3277 394.419 31.2923 393.447 31.6283C392.262 32.0526 391.325 32.751 390.636 33.7235C389.592 35.2087 389.133 36.632 389.256 37.9935C389.398 39.3372 389.964 40.4158 390.954 41.2291C391.962 42.0248 393.27 42.3342 394.879 42.1574C395.639 42.1397 396.143 42.5729 396.391 43.457C396.656 44.341 396.523 45.2516 395.993 46.1887C395.463 47.1081 394.411 47.612 392.837 47.7004C390.839 47.7358 388.894 47.0551 387.002 45.6583C385.747 44.5974 384.907 43.121 384.483 41.2291C384.058 39.3196 384.085 37.2951 384.562 35.1557C385.04 32.9986 385.985 31.0271 387.4 29.2413C388.832 27.4555 390.759 26.1559 393.182 25.3426C394.596 24.9006 395.931 24.7857 397.186 24.9978C398.442 25.21 399.547 25.6609 400.502 26.3504C401.669 27.2345 402.455 28.2954 402.862 29.533C403.286 30.753 403.428 32.0614 403.286 33.4583C403.251 33.8119 403.216 34.1743 403.18 34.5457C402.986 35.9601 402.933 37.3128 403.021 38.6035C403.11 39.8765 403.614 40.9197 404.533 41.733C405.452 42.5464 407.061 42.9619 409.36 42.9796ZM409.336 42.9796C409.848 42.9796 410.343 43.1122 410.821 43.3774C411.298 43.6249 411.67 43.9962 411.935 44.4913C412.218 44.9687 412.359 45.4638 412.359 45.9765C412.359 46.507 412.226 47.0109 411.961 47.4883C411.696 47.9657 411.325 48.337 410.847 48.6022C410.37 48.8674 409.866 49 409.336 49C408.823 49 408.328 48.8674 407.85 48.6022C407.355 48.337 406.984 47.9657 406.736 47.4883C406.471 47.0109 406.339 46.507 406.339 45.9765C406.339 45.4638 406.471 44.9687 406.736 44.4913C407.002 43.9962 407.373 43.6249 407.85 43.3774C408.328 43.1122 408.823 42.9796 409.336 42.9796ZM409.362 49V42.9796H413.446C415.303 42.8204 416.594 41.9717 417.319 40.4335C418.061 38.8775 418.212 37.2862 417.77 35.6596C417.239 33.7677 417.16 32.477 417.531 31.7874C417.902 31.0978 418.477 30.8945 419.255 31.1774C420.05 31.4603 420.802 32.1145 421.509 33.14C422.234 34.1478 422.685 35.4209 422.862 36.9591C423.056 38.9394 422.835 40.8136 422.199 42.5817C421.562 44.3322 420.492 45.7909 418.99 46.9578C417.54 48.0894 415.648 48.7701 413.314 49C410.75 49 409.433 49 409.362 49ZM414.322 51.7848C415.63 51.4312 416.832 51.5372 417.929 52.103C419.025 52.6688 419.732 53.4822 420.05 54.543C420.316 55.8691 420.068 56.9654 419.308 57.8317C418.565 58.6981 417.734 59.2462 416.815 59.4761C414.994 59.812 413.553 59.4672 412.492 58.4417C411.449 57.4162 411.015 56.2228 411.192 54.8613C411.387 53.4999 412.43 52.4743 414.322 51.7848ZM453.04 43.0061V49C451.272 49 449.866 48.5757 448.823 47.727C447.779 46.8783 446.94 45.6848 446.303 44.1465C445.172 45.9854 443.73 47.3026 441.98 48.0983C440.23 48.8762 438.311 49.3006 436.225 49.3713C433.979 49.4067 432.379 49.0442 431.424 48.2839C430.47 47.5236 430.01 46.6749 430.045 45.7378C430.081 44.8007 430.478 44.0846 431.239 43.5896C431.822 43.342 432.892 43.2536 434.448 43.3243C435.367 43.3597 436.331 43.3509 437.339 43.2978C439.673 43.1564 441.264 42.7055 442.113 41.9452C442.961 41.1672 443.262 40.1506 443.014 38.8952C442.767 37.6222 442.166 36.19 441.211 34.5987C440.433 33.3257 439.911 32.2029 439.646 31.2304C439.469 30.1696 439.682 29.3032 440.283 28.6313C440.884 27.9417 441.644 27.6235 442.564 27.6765C443.501 27.7119 444.394 28.2688 445.242 29.3474C445.843 30.3022 446.524 31.7255 447.284 33.6174C447.514 34.1655 447.753 34.7313 448 35.3148C448.301 36.0574 448.566 36.853 448.796 37.7017C449.097 39.0101 449.539 40.1771 450.122 41.2026C450.706 42.2281 451.678 42.8293 453.04 43.0061ZM471.062 42.9796V49C470.443 49.0177 469.833 49.0177 469.232 49C467.358 49.0354 465.51 48.6994 463.689 47.9922C461.868 47.2672 460.471 46.0738 459.498 44.4117C458.95 45.7909 458.084 46.8959 456.899 47.727C455.732 48.558 454.433 48.9823 453.001 49V42.9796C454.327 42.9972 455.299 42.8204 455.918 42.4491C456.555 42.0601 457.005 41.5916 457.271 41.0435C457.518 40.5307 457.66 39.9561 457.695 39.3196C457.748 38.683 457.757 38.0023 457.722 37.2774C457.668 36.2696 457.704 35.2441 457.828 34.2009C458.004 33.193 458.438 32.5035 459.127 32.1322C459.834 31.7609 460.533 31.8404 461.222 32.3709C461.912 32.9013 462.345 34.0064 462.522 35.6861C462.557 36.0397 462.61 36.3845 462.681 36.7204C462.752 37.1978 462.814 37.6575 462.867 38.0996C463.044 38.9306 463.424 39.7174 464.007 40.46C464.608 41.1849 465.466 41.7861 466.58 42.2635C467.711 42.7409 469.205 42.9796 471.062 42.9796ZM471.062 42.9796C471.575 42.9796 472.07 43.1122 472.547 43.3774C473.025 43.6249 473.396 43.9962 473.661 44.4913C473.944 44.9687 474.085 45.4638 474.085 45.9765C474.085 46.507 473.953 47.0109 473.688 47.4883C473.422 47.9657 473.051 48.337 472.574 48.6022C472.096 48.8674 471.592 49 471.062 49C470.549 49 470.045 48.8674 469.55 48.6022C469.073 48.337 468.702 47.9657 468.436 47.4883C468.189 47.0109 468.065 46.507 468.065 45.9765C468.065 45.4638 468.198 44.9687 468.463 44.4913C468.728 43.9962 469.099 43.6249 469.577 43.3774C470.054 43.1122 470.549 42.9796 471.062 42.9796ZM453.08 42.9796C453.593 42.9796 454.088 43.1122 454.565 43.3774C455.043 43.6249 455.414 43.9962 455.679 44.4913C455.962 44.9687 456.104 45.4638 456.104 45.9765C456.104 46.507 455.971 47.0109 455.706 47.4883C455.441 47.9657 455.069 48.337 454.592 48.6022C454.115 48.8674 453.611 49 453.08 49C452.567 49 452.072 48.8674 451.595 48.6022C451.118 48.337 450.746 47.9657 450.481 47.4883C450.216 47.0109 450.083 46.507 450.083 45.9765C450.083 45.4638 450.216 44.9687 450.481 44.4913C450.746 43.9962 451.126 43.6249 451.622 43.3774C452.099 43.1122 452.585 42.9796 453.08 42.9796ZM456.873 20.9665C458.181 20.6129 459.384 20.719 460.48 21.2848C461.576 21.8329 462.283 22.6462 462.602 23.7248C462.867 25.0332 462.619 26.1206 461.859 26.987C461.116 27.8533 460.285 28.4014 459.366 28.6313C457.545 28.9849 456.104 28.649 455.043 27.6235C454 26.5803 453.566 25.378 453.743 24.0165C453.938 22.6551 454.981 21.6384 456.873 20.9665ZM471.104 49C470.591 49 470.096 48.8674 469.618 48.6022C469.141 48.337 468.77 47.9657 468.504 47.4883C468.239 47.0109 468.107 46.507 468.107 45.9765C468.107 45.4638 468.239 44.9687 468.504 44.4913C468.77 43.9962 469.141 43.6249 469.618 43.3774C470.096 43.1122 470.591 42.9796 471.104 42.9796C472.642 42.9796 473.924 42.8116 474.949 42.4757C475.992 42.1397 476.832 41.6888 477.469 41.123C478.583 40.1329 479.184 38.8599 479.272 37.3039V37.0122L479.06 22.9291C479.113 21.0372 479.59 19.8349 480.492 19.3222C481.394 18.8094 482.296 18.8271 483.197 19.3752C484.117 19.941 484.612 20.8781 484.683 22.1865L484.789 33.2726C484.859 36.5259 484.506 39.3284 483.728 41.68C482.95 44.0139 481.553 45.8174 479.537 47.0904C477.539 48.3458 474.737 48.9823 471.13 49H471.104ZM500.636 49C498.744 49.0177 497.25 48.6375 496.154 47.8596C495.04 50.6001 493.086 52.7396 490.292 54.2778C489.32 54.7906 488.268 55.1796 487.136 55.4448C486.022 55.7277 484.908 55.7984 483.794 55.657C483.352 55.6039 482.848 55.4448 482.283 55.1796C481.699 54.932 481.354 54.5696 481.248 54.0922C481.213 53.6855 481.407 53.3142 481.832 52.9783C482.256 52.66 482.742 52.3859 483.29 52.1561C483.821 51.9439 484.236 51.7936 484.537 51.7052C486.305 51.1748 487.737 50.2819 488.834 49.0265C489.947 47.7888 490.805 46.3125 491.406 44.5974C491.884 43.0414 492.016 41.4501 491.804 39.8235C491.751 39.187 491.68 38.5504 491.592 37.9139C491.486 37.1536 491.406 36.3933 491.353 35.633C491.318 35.191 491.318 34.7136 491.353 34.2009C491.388 33.6704 491.53 33.2107 491.777 32.8217C492.025 32.4858 492.343 32.2471 492.732 32.1057C493.121 31.9642 493.519 31.8846 493.926 31.867C494.35 31.8139 494.766 31.8316 495.172 31.92C495.579 31.9907 495.932 32.1764 496.233 32.477C496.551 32.8659 496.781 33.3699 496.923 33.9887C497.064 34.5899 497.17 35.1733 497.241 35.7391C497.276 35.8983 497.303 36.0486 497.32 36.19C497.444 36.968 497.533 37.7548 497.586 38.5504V38.7096C497.656 39.5406 497.771 40.2743 497.93 40.9109C498.09 41.5474 498.399 42.0513 498.859 42.4226C499.318 42.7939 499.911 42.9796 500.636 42.9796C501.095 42.9972 501.555 43.121 502.015 43.3509C502.492 43.6161 502.864 43.9962 503.129 44.4913C503.412 44.9687 503.553 45.4638 503.553 45.9765C503.553 46.507 503.42 47.0109 503.155 47.4883C502.89 47.9657 502.519 48.337 502.041 48.6022C501.582 48.8497 501.113 48.9823 500.636 49ZM512.877 37.0652C513.513 35.6684 513.487 34.7225 512.797 34.2274C512.125 33.7323 511.294 33.6616 510.304 34.0152C509.332 34.3512 508.722 35.0849 508.474 36.2165C508.297 37.6133 508.465 38.5328 508.978 38.9748C509.509 39.4168 510.154 39.461 510.914 39.1074C511.675 38.7361 512.329 38.0554 512.877 37.0652ZM500.65 49C500.138 49 499.643 48.8674 499.165 48.6022C498.688 48.337 498.316 47.9657 498.051 47.4883C497.786 47.0109 497.653 46.507 497.653 45.9765C497.653 45.4638 497.786 44.9687 498.051 44.4913C498.316 43.9962 498.688 43.6249 499.165 43.3774C499.643 43.1122 500.138 42.9796 500.65 42.9796C501.587 42.9796 502.533 42.9442 503.488 42.8735C504.461 42.8028 505.186 42.5906 505.663 42.237C504.39 41.3883 503.541 40.2213 503.117 38.7361C502.693 37.2509 502.675 35.7391 503.064 34.2009C503.471 32.6626 504.266 31.3896 505.451 30.3817C507.555 28.7728 509.677 28.0655 511.816 28.26C513.973 28.4368 515.777 29.2325 517.226 30.647C518.676 32.0614 519.437 33.803 519.507 35.8717C519.578 37.9404 518.588 40.0357 516.537 42.1574C516.908 42.5287 517.412 42.7586 518.049 42.847C518.685 42.9354 519.357 42.9796 520.064 42.9796H520.993C521.47 42.9972 521.93 43.121 522.372 43.3509C522.849 43.6161 523.22 43.9962 523.486 44.4913C523.769 44.9687 523.91 45.4638 523.91 45.9765C523.91 46.507 523.777 47.0109 523.512 47.4883C523.247 47.9657 522.876 48.337 522.398 48.6022C521.956 48.8497 521.488 48.9823 520.993 49H516.298C514.99 49 513.858 48.7083 512.903 48.1248C511.949 47.5413 511.241 46.8252 510.782 45.9765C510.181 47.1435 509.146 47.9391 507.679 48.3635C506.211 48.7878 504.691 49 503.117 49H500.65ZM509.694 17.1474C511.003 16.7938 512.205 16.8999 513.301 17.4657C514.397 18.0138 515.105 18.8271 515.423 19.9057C515.688 21.2141 515.441 22.3014 514.68 23.1678C513.938 24.0342 513.107 24.5823 512.187 24.8122C510.366 25.1658 508.925 24.8299 507.864 23.8043C506.821 22.7612 506.388 21.5588 506.565 20.1974C506.759 18.8359 507.802 17.8193 509.694 17.1474ZM520.937 49V42.9796H521.309C523.165 42.8204 524.456 41.9717 525.181 40.4335C525.923 38.8775 526.074 37.2862 525.632 35.6596C525.101 33.7677 525.022 32.477 525.393 31.7874C525.764 31.0978 526.339 30.8945 527.117 31.1774C527.913 31.4603 528.664 32.1145 529.371 33.14C530.096 34.1478 530.547 35.4209 530.724 36.9591C530.918 38.9394 530.697 40.8136 530.061 42.5817C529.424 44.3322 528.355 45.7997 526.852 46.9843C525.349 48.1513 523.377 48.8232 520.937 49ZM525.313 53.5087C527.294 53.7032 528.744 54.0568 529.663 54.5696C530.6 55.0823 530.812 55.6039 530.3 56.1343C529.804 56.6648 528.39 57.0626 526.056 57.3278C524.836 57.487 523.315 57.6638 521.494 57.8583C519.691 58.0528 518.064 58.15 516.614 58.15C516.473 58.15 516.323 58.15 516.163 58.15C515.368 58.1677 514.731 58.0881 514.254 57.9113C513.759 57.7345 513.511 57.2394 513.511 56.4261C513.6 55.4183 514.13 54.6933 515.103 54.2513C516.057 53.8093 517.189 53.5441 518.497 53.4557C519.806 53.3849 520.999 53.3584 522.078 53.3761C522.414 53.3938 522.714 53.4026 522.98 53.4026C523.086 53.4026 523.201 53.4026 523.324 53.4026C523.979 53.3849 524.288 53.3761 524.253 53.3761C524.217 53.3938 524.571 53.438 525.313 53.5087ZM543.938 42.9796V49H542.798C540.446 49 538.634 48.5757 537.361 47.727C536.088 46.8606 535.177 45.7025 534.629 44.2526C534.081 42.8028 533.754 41.1672 533.648 39.3461C533.559 37.5249 533.533 35.633 533.568 33.6704C533.568 33.529 533.568 33.3875 533.568 33.2461L533.674 22.16C533.763 20.8516 534.258 19.9233 535.16 19.3752C536.079 18.8271 536.981 18.8094 537.865 19.3222C538.767 19.8349 539.244 21.0372 539.297 22.9291L539.085 38.63C539.173 40.3274 539.633 41.4855 540.464 42.1043C541.313 42.7232 542.329 43.0149 543.514 42.9796H543.938ZM543.832 42.9796C544.327 42.9796 544.814 43.1122 545.291 43.3774C545.786 43.6249 546.166 43.9962 546.431 44.4913C546.697 44.9687 546.829 45.4638 546.829 45.9765C546.829 46.507 546.697 47.0109 546.431 47.4883C546.184 47.9657 545.813 48.337 545.317 48.6022C544.84 48.8674 544.345 49 543.832 49C543.302 49 542.798 48.8674 542.32 48.6022C541.843 48.337 541.472 47.9657 541.207 47.4883C540.941 47.0109 540.809 46.507 540.809 45.9765C540.809 45.4638 540.941 44.9687 541.207 44.4913C541.489 43.9962 541.87 43.6249 542.347 43.3774C542.824 43.1122 543.319 42.9796 543.832 42.9796ZM543.958 42.9796C544.471 42.9796 544.966 43.1122 545.443 43.3774C545.921 43.6249 546.292 43.9962 546.557 44.4913C546.84 44.9687 546.981 45.4638 546.981 45.9765C546.981 46.507 546.849 47.0109 546.584 47.4883C546.318 47.9657 545.947 48.337 545.47 48.6022C544.992 48.8674 544.488 49 543.958 49C543.445 49 542.95 48.8674 542.473 48.6022C541.995 48.337 541.624 47.9657 541.359 47.4883C541.094 47.0109 540.961 46.507 540.961 45.9765C540.961 45.4638 541.094 44.9687 541.359 44.4913C541.624 43.9962 541.995 43.6249 542.473 43.3774C542.95 43.1122 543.445 42.9796 543.958 42.9796ZM569.313 47.3026C568.093 48.4872 566.616 49.053 564.884 49C563.151 48.9646 561.586 48.2751 560.189 46.9313C559.464 47.9745 558.545 48.6287 557.431 48.8939C556.317 49.1591 555.212 49.0619 554.116 48.6022C553.037 48.1248 552.18 47.3291 551.543 46.2152C550.235 47.5236 548.935 48.3458 547.645 48.6817C546.354 49 545.125 49.1061 543.958 49V42.9796C545.355 42.9972 546.354 42.8028 546.955 42.3961C547.574 41.9717 547.972 41.4325 548.148 40.7783C548.343 40.1064 548.467 39.3991 548.52 38.6565C548.555 37.9493 548.652 37.2951 548.811 36.6939C548.988 36.0751 549.351 35.5888 549.899 35.2352C550.641 34.8109 551.402 34.7048 552.18 34.917C552.975 35.1291 553.532 35.6507 553.851 36.4817C554.08 37.2243 554.195 38.0642 554.195 39.0013C554.195 39.7086 554.257 40.4158 554.381 41.123C554.682 42.6083 555.124 43.2183 555.707 42.953C556.291 42.6878 556.821 41.9806 557.298 40.8313C557.794 39.6643 558.068 38.5062 558.121 37.357C558.209 36.137 558.633 35.2883 559.394 34.8109C560.172 34.3158 560.976 34.3246 561.807 34.8374C562.638 35.3325 563.16 36.4729 563.372 38.2587L563.425 40.1417C563.478 42.1043 563.77 43.0326 564.3 42.9265C564.831 42.8028 565.432 41.9099 566.104 40.2478C566.546 39.1516 566.749 37.967 566.714 36.6939C566.731 35.0849 567.103 33.9268 567.828 33.2196C568.57 32.5123 569.392 32.2913 570.294 32.5565C571.214 32.8217 571.93 33.5997 572.442 34.8904C572.937 36.3049 573.088 37.799 572.893 39.3726C572.716 40.9462 572.319 42.4138 571.7 43.7752C570.939 45.3135 570.144 46.4893 569.313 47.3026ZM588.553 44.677C589.791 44.5886 590.56 44.1023 590.861 43.2183C591.161 42.3342 591.011 41.4767 590.41 40.6457C589.826 39.797 588.818 39.3814 587.386 39.3991C586.661 39.4522 586.06 39.7439 585.583 40.2743C585.105 40.8048 584.911 41.4943 584.999 42.343C585.123 42.9972 585.53 43.5542 586.219 44.0139C586.927 44.4559 587.704 44.677 588.553 44.677ZM597.093 42.9796C597.588 42.9796 598.074 43.1033 598.552 43.3509C599.029 43.6161 599.401 43.9962 599.666 44.4913C599.949 44.9687 600.09 45.4638 600.09 45.9765C600.09 46.507 599.958 47.0109 599.692 47.4883C599.427 47.9657 599.056 48.337 598.578 48.6022C598.101 48.8674 597.606 49 597.093 49H593.911C592.85 52.0765 590.799 54.4635 587.758 56.1609C586.785 56.6913 585.733 57.0891 584.601 57.3543C583.47 57.6196 582.356 57.6814 581.26 57.54C580.818 57.487 580.305 57.3367 579.721 57.0891C579.156 56.8416 578.811 56.4703 578.687 55.9752C578.669 55.5686 578.873 55.1972 579.297 54.8613C579.721 54.543 580.199 54.269 580.729 54.0391C581.26 53.827 581.684 53.6767 582.002 53.5883C584.601 52.7749 586.511 51.2278 587.731 48.947C586.034 48.9293 584.478 48.443 583.063 47.4883C581.649 46.5335 580.703 45.172 580.225 43.4039C579.889 42.0601 579.96 40.7075 580.438 39.3461C580.915 37.967 581.737 36.7912 582.904 35.8187C584.071 34.8286 585.53 34.2539 587.28 34.0948C589.897 33.9533 591.913 34.7136 593.327 36.3757C594.476 37.8432 595.06 39.4964 595.078 41.3352C595.095 41.8657 595.095 42.4049 595.078 42.953L597.093 42.9796ZM597.042 42.9796C597.554 42.9796 598.05 43.1122 598.527 43.3774C599.004 43.6249 599.376 43.9962 599.641 44.4913C599.924 44.9687 600.065 45.4638 600.065 45.9765C600.065 46.507 599.933 47.0109 599.667 47.4883C599.402 47.9657 599.031 48.337 598.553 48.6022C598.076 48.8674 597.572 49 597.042 49C596.529 49 596.034 48.8674 595.556 48.6022C595.061 48.337 594.69 47.9657 594.443 47.4883C594.177 47.0109 594.045 46.507 594.045 45.9765C594.045 45.4638 594.177 44.9687 594.443 44.4913C594.708 43.9962 595.079 43.6249 595.556 43.3774C596.034 43.1122 596.529 42.9796 597.042 42.9796ZM597.068 49V42.9796H601.153C603.009 42.8204 604.3 41.9717 605.025 40.4335C605.767 38.8775 605.918 37.2862 605.476 35.6596C604.945 33.7677 604.866 32.477 605.237 31.7874C605.608 31.0978 606.183 30.8945 606.961 31.1774C607.756 31.4603 608.508 32.1145 609.215 33.14C609.94 34.1478 610.391 35.4209 610.568 36.9591C610.762 38.9394 610.541 40.8136 609.905 42.5817C609.268 44.3322 608.198 45.7909 606.696 46.9578C605.246 48.0894 603.354 48.7701 601.02 49C598.456 49 597.139 49 597.068 49ZM603.248 21.1257C605.228 21.3201 606.678 21.6738 607.597 22.1865C608.534 22.6993 608.747 23.2209 608.234 23.7513C607.739 24.2817 606.324 24.6796 603.99 24.9448C602.77 25.1039 601.25 25.2807 599.429 25.4752C597.625 25.6697 595.998 25.767 594.549 25.767C594.407 25.767 594.257 25.767 594.098 25.767C593.302 25.7846 592.666 25.7051 592.188 25.5283C591.693 25.3514 591.446 24.8564 591.446 24.043C591.534 23.0352 592.064 22.3103 593.037 21.8683C593.992 21.4262 595.123 21.1699 596.432 21.0991C597.74 21.0107 598.934 20.9754 600.012 20.993C600.348 21.0107 600.649 21.0196 600.914 21.0196C601.02 21.0196 601.135 21.0196 601.259 21.0196C601.913 21.0019 602.222 21.0019 602.187 21.0196C602.152 21.0196 602.505 21.0549 603.248 21.1257ZM177.907 113.106C177.907 112.081 178.198 111.258 178.782 110.64C179.401 109.985 180.276 109.658 181.408 109.658C182.557 109.658 183.45 109.985 184.086 110.64C184.687 111.258 184.988 112.081 184.988 113.106C184.988 114.061 184.687 114.839 184.086 115.44C183.432 116.077 182.539 116.395 181.408 116.395C180.276 116.395 179.401 116.077 178.782 115.44C178.198 114.857 177.907 114.079 177.907 113.106ZM195.182 113.106C195.182 112.081 195.474 111.258 196.057 110.64C196.676 109.985 197.551 109.658 198.683 109.658C199.832 109.658 200.725 109.985 201.362 110.64C201.963 111.258 202.263 112.081 202.263 113.106C202.263 114.061 201.963 114.839 201.362 115.44C200.707 116.077 199.815 116.395 198.683 116.395C197.551 116.395 196.676 116.077 196.057 115.44C195.474 114.857 195.182 114.079 195.182 113.106ZM212.458 113.106C212.458 112.081 212.749 111.258 213.333 110.64C213.952 109.985 214.827 109.658 215.958 109.658C217.108 109.658 218.001 109.985 218.637 110.64C219.238 111.258 219.539 112.081 219.539 113.106C219.539 114.061 219.238 114.839 218.637 115.44C217.983 116.077 217.09 116.395 215.958 116.395C214.827 116.395 213.952 116.077 213.333 115.44C212.749 114.857 212.458 114.079 212.458 113.106ZM239.974 106.953C241.212 106.865 241.972 106.378 242.255 105.494C242.556 104.61 242.414 103.753 241.831 102.922C241.247 102.073 240.239 101.658 238.807 101.675C238.082 101.728 237.472 102.02 236.977 102.55C236.5 103.081 236.314 103.77 236.42 104.619C236.544 105.273 236.951 105.83 237.64 106.29C238.348 106.732 239.126 106.953 239.974 106.953ZM239.126 111.223C237.428 111.205 235.872 110.719 234.458 109.764C233.061 108.81 232.115 107.448 231.62 105.68C231.302 104.336 231.381 102.984 231.859 101.622C232.336 100.243 233.149 99.0672 234.299 98.0948C235.466 97.1046 236.924 96.53 238.675 96.3709C241.309 96.2294 243.325 96.9897 244.722 98.6517C245.889 100.119 246.472 101.772 246.472 103.611C246.596 106.617 246.092 109.464 244.96 112.151C243.846 114.839 241.919 116.934 239.179 118.437C238.188 118.95 237.128 119.339 235.996 119.604C234.882 119.887 233.768 119.958 232.654 119.816C232.23 119.763 231.726 119.613 231.142 119.365C230.559 119.118 230.214 118.746 230.108 118.251C230.09 117.845 230.294 117.473 230.718 117.137C231.142 116.819 231.62 116.545 232.15 116.315C232.681 116.103 233.096 115.953 233.397 115.864C236.014 115.051 237.923 113.504 239.126 111.223ZM264.274 100.323C264.646 102.621 264.681 104.937 264.381 107.271C264.098 109.605 263.382 111.753 262.232 113.716C261.101 115.679 259.439 117.252 257.246 118.437C256.274 118.95 255.222 119.339 254.09 119.604C252.976 119.887 251.862 119.949 250.748 119.79C250.306 119.737 249.802 119.586 249.237 119.339C248.653 119.091 248.308 118.729 248.202 118.251C248.167 117.827 248.361 117.447 248.786 117.111C249.21 116.793 249.696 116.519 250.244 116.289C250.775 116.077 251.19 115.935 251.491 115.864C253.259 115.334 254.691 114.441 255.788 113.186C256.901 111.948 257.759 110.472 258.36 108.757C258.838 107.201 258.97 105.609 258.758 103.983C258.705 103.346 258.634 102.71 258.546 102.073C258.44 101.313 258.36 100.544 258.307 99.7657C258.254 99.3236 258.245 98.8462 258.281 98.3335C258.334 97.8207 258.484 97.3699 258.731 96.9809C258.979 96.6449 259.297 96.4062 259.686 96.2648C260.075 96.1233 260.473 96.0349 260.88 95.9996C261.286 95.9642 261.693 95.9819 262.1 96.0526C262.524 96.1233 262.886 96.3178 263.187 96.6361C263.505 97.0074 263.735 97.5025 263.877 98.1213C264.018 98.7401 264.124 99.3325 264.195 99.8983C264.213 100.04 264.239 100.181 264.274 100.323ZM274.747 85.9213C274.817 88.7326 274.773 92.3484 274.614 96.7687C274.455 101.171 274.19 104.734 273.818 107.457C273.482 109.543 272.996 111.108 272.36 112.151C271.741 113.194 271.148 113.46 270.583 112.947C270.034 112.417 269.69 110.843 269.548 108.226L269.124 87.7778C269.177 85.7622 269.645 84.4184 270.53 83.7465C271.431 83.0746 272.333 82.9509 273.235 83.3752C274.137 83.7996 274.64 84.6483 274.747 85.9213ZM298.872 107.006V113C297.104 113 295.698 112.576 294.655 111.727C293.612 110.878 292.772 109.685 292.135 108.147C291.004 109.985 289.563 111.303 287.812 112.098C286.062 112.876 284.143 113.301 282.057 113.371C279.811 113.407 278.211 113.044 277.256 112.284C276.302 111.524 275.842 110.675 275.877 109.738C275.913 108.801 276.31 108.085 277.071 107.59C277.654 107.342 278.724 107.254 280.28 107.324C281.199 107.36 282.163 107.351 283.171 107.298C285.505 107.156 287.096 106.706 287.945 105.945C288.793 105.167 289.094 104.151 288.846 102.895C288.599 101.622 287.998 100.19 287.043 98.5987C286.265 97.3257 285.743 96.2029 285.478 95.2304C285.301 94.1696 285.514 93.3032 286.115 92.6313C286.716 91.9417 287.476 91.6235 288.396 91.6765C289.333 91.7119 290.226 92.2688 291.074 93.3474C291.675 94.3022 292.356 95.7255 293.116 97.6174C293.346 98.1655 293.585 98.7313 293.833 99.3148C294.133 100.057 294.398 100.853 294.628 101.702C294.929 103.01 295.371 104.177 295.954 105.203C296.538 106.228 297.51 106.829 298.872 107.006ZM286.751 76.7183C288.06 76.3646 289.262 76.4707 290.358 77.0365C291.454 77.5846 292.162 78.398 292.48 79.4765C292.745 80.7849 292.498 81.8723 291.737 82.7387C290.995 83.6051 290.164 84.1532 289.244 84.383C287.423 84.7367 285.982 84.4007 284.921 83.3752C283.878 82.332 283.445 81.1297 283.622 79.7683C283.816 78.4068 284.859 77.3901 286.751 76.7183ZM298.833 106.98C299.345 106.98 299.841 107.112 300.318 107.377C300.795 107.625 301.167 107.996 301.432 108.491C301.715 108.969 301.856 109.464 301.856 109.977C301.856 110.507 301.724 111.011 301.458 111.488C301.193 111.966 300.822 112.337 300.344 112.602C299.867 112.867 299.363 113 298.833 113C298.32 113 297.825 112.867 297.347 112.602C296.852 112.337 296.481 111.966 296.234 111.488C295.968 111.011 295.836 110.507 295.836 109.977C295.836 109.464 295.968 108.969 296.234 108.491C296.499 107.996 296.87 107.625 297.347 107.377C297.825 107.112 298.32 106.98 298.833 106.98ZM298.859 113V106.98H302.944C304.8 106.82 306.091 105.972 306.816 104.433C307.558 102.878 307.709 101.286 307.267 99.6596C306.736 97.7677 306.657 96.477 307.028 95.7874C307.399 95.0978 307.974 94.8945 308.752 95.1774C309.547 95.4603 310.299 96.1145 311.006 97.14C311.731 98.1478 312.182 99.4209 312.359 100.959C312.553 102.939 312.332 104.814 311.696 106.582C311.059 108.332 309.99 109.791 308.487 110.958C307.037 112.089 305.145 112.77 302.811 113C300.247 113 298.93 113 298.859 113ZM303.819 115.785C305.127 115.431 306.33 115.537 307.426 116.103C308.522 116.669 309.229 117.482 309.547 118.543C309.813 119.869 309.565 120.965 308.805 121.832C308.062 122.698 307.231 123.246 306.312 123.476C304.491 123.812 303.05 123.467 301.989 122.442C300.946 121.416 300.512 120.223 300.689 118.861C300.884 117.5 301.927 116.474 303.819 115.785ZM335.168 106.953C336.405 106.865 337.166 106.378 337.448 105.494C337.749 104.61 337.608 103.753 337.024 102.922C336.441 102.073 335.433 101.658 334.001 101.675C333.276 101.728 332.666 102.02 332.171 102.55C331.693 103.081 331.508 103.77 331.614 104.619C331.737 105.273 332.144 105.83 332.834 106.29C333.541 106.732 334.319 106.953 335.168 106.953ZM334.319 111.223C332.621 111.205 331.066 110.719 329.651 109.764C328.254 108.81 327.308 107.448 326.813 105.68C326.495 104.336 326.575 102.984 327.052 101.622C327.529 100.243 328.343 99.0672 329.492 98.0948C330.659 97.1046 332.118 96.53 333.868 96.3709C336.503 96.2294 338.518 96.9897 339.915 98.6517C341.082 100.119 341.665 101.772 341.665 103.611C341.789 106.617 341.285 109.464 340.154 112.151C339.04 114.839 337.113 116.934 334.372 118.437C333.382 118.95 332.321 119.339 331.189 119.604C330.075 119.887 328.961 119.958 327.848 119.816C327.423 119.763 326.919 119.613 326.336 119.365C325.752 119.118 325.408 118.746 325.301 118.251C325.284 117.845 325.487 117.473 325.911 117.137C326.336 116.819 326.813 116.545 327.344 116.315C327.874 116.103 328.29 115.953 328.59 115.864C331.207 115.051 333.117 113.504 334.319 111.223ZM354.106 100.323C354.478 102.621 354.513 104.937 354.213 107.271C353.93 109.605 353.214 111.753 352.064 113.716C350.933 115.679 349.271 117.252 347.078 118.437C346.106 118.95 345.054 119.339 343.922 119.604C342.808 119.887 341.694 119.949 340.58 119.79C340.138 119.737 339.634 119.586 339.069 119.339C338.485 119.091 338.14 118.729 338.034 118.251C337.999 117.827 338.193 117.447 338.618 117.111C339.042 116.793 339.528 116.519 340.076 116.289C340.607 116.077 341.022 115.935 341.323 115.864C343.091 115.334 344.523 114.441 345.62 113.186C346.733 111.948 347.591 110.472 348.192 108.757C348.67 107.201 348.802 105.609 348.59 103.983C348.537 103.346 348.466 102.71 348.378 102.073C348.272 101.313 348.192 100.544 348.139 99.7657C348.086 99.3236 348.077 98.8462 348.113 98.3335C348.166 97.8207 348.316 97.3699 348.563 96.9809C348.811 96.6449 349.129 96.4062 349.518 96.2648C349.907 96.1233 350.305 96.0349 350.712 95.9996C351.118 95.9642 351.525 95.9819 351.932 96.0526C352.356 96.1233 352.719 96.3178 353.019 96.6361C353.337 97.0074 353.567 97.5025 353.709 98.1213C353.85 98.7401 353.956 99.3325 354.027 99.8983C354.045 100.04 354.071 100.181 354.106 100.323ZM404.71 98.2274C404.922 101.021 404.277 103.39 402.774 105.335C401.289 107.28 399.352 108.836 396.966 110.003C394.596 111.152 392.2 111.939 389.778 112.363C383.696 113.354 378.391 113.203 373.865 111.913C372.451 111.471 371.142 110.94 369.94 110.321C367.677 109.172 365.926 107.766 364.689 106.104C363.451 104.442 362.876 102.701 362.965 100.88C363.159 98.7048 363.981 96.919 365.431 95.5222C366.881 94.1254 368.667 93.0557 370.789 92.313C372.91 91.5528 375.076 91.0665 377.286 90.8543C379.514 90.6422 381.512 90.6333 383.28 90.8278C384.889 91.0223 386.118 91.2875 386.967 91.6235C387.833 91.9417 387.948 92.2777 387.312 92.6313C386.693 92.9672 384.978 93.2501 382.166 93.48C376.827 94.0104 373.043 94.9564 370.815 96.3178C368.605 97.6616 367.624 99.1291 367.871 100.72C368.136 102.312 369.33 103.717 371.452 104.937C372.972 105.768 375.05 106.361 377.684 106.714C380.319 107.068 383.095 107.148 386.012 106.953C388.929 106.759 391.59 106.255 393.995 105.441C396.417 104.628 398.168 103.47 399.246 101.967C399.759 101.083 400.042 100.172 400.095 99.2352C400.13 98.8816 400.175 98.5457 400.228 98.2274C400.458 97.3433 400.9 96.698 401.554 96.2913C402.208 95.8846 402.853 95.8139 403.49 96.0791C404.126 96.3443 404.533 97.0604 404.71 98.2274ZM388.77 97.9091C390.751 98.1036 392.2 98.4572 393.12 98.97C394.057 99.4828 394.269 100.004 393.756 100.535C393.261 101.065 391.847 101.463 389.513 101.728C388.293 101.887 386.772 102.064 384.951 102.259C383.148 102.453 381.521 102.55 380.071 102.55C379.93 102.55 379.779 102.55 379.62 102.55C378.825 102.568 378.179 102.489 377.684 102.312C377.207 102.135 376.968 101.64 376.968 100.827C377.057 99.8187 377.578 99.0938 378.533 98.6517C379.505 98.2097 380.646 97.9533 381.954 97.8826C383.263 97.7942 384.456 97.7588 385.535 97.7765C385.871 97.7942 386.171 97.803 386.436 97.803C386.542 97.803 386.657 97.803 386.781 97.803C387.435 97.7854 387.745 97.7854 387.709 97.803C387.674 97.803 388.028 97.8384 388.77 97.9091ZM421.055 102.391C420.595 100.888 419.154 99.4562 416.732 98.0948C415.424 97.3875 414.416 96.6891 413.709 95.9996C413.019 95.1509 412.763 94.2845 412.939 93.4004C413.134 92.5164 413.638 91.8622 414.451 91.4378C415.282 90.9958 416.334 91.04 417.607 91.5704C419.004 92.2423 420.799 93.4977 422.991 95.3365C425.077 97.2107 426.306 99.4386 426.678 102.02L426.704 101.993C426.722 102.206 426.731 102.418 426.731 102.63C426.731 104.416 426.359 105.998 425.617 107.377C424.538 109.252 422.973 110.684 420.922 111.674C418.889 112.646 416.705 113.186 414.372 113.292C412.126 113.345 410.517 112.991 409.545 112.231C408.59 111.471 408.13 110.622 408.165 109.685C408.219 108.73 408.625 108.014 409.385 107.537C409.969 107.289 411.03 107.201 412.568 107.271C413.487 107.289 414.451 107.271 415.459 107.218C417.934 107.077 419.579 106.582 420.392 105.733C421.205 104.884 421.426 103.77 421.055 102.391ZM437.125 108.677C438.363 108.589 439.132 108.102 439.433 107.218C439.733 106.334 439.583 105.477 438.982 104.646C438.398 103.797 437.391 103.381 435.958 103.399C435.234 103.452 434.632 103.744 434.155 104.274C433.678 104.805 433.483 105.494 433.572 106.343C433.695 106.997 434.102 107.554 434.792 108.014C435.499 108.456 436.277 108.677 437.125 108.677ZM445.665 106.98C446.161 106.98 446.647 107.103 447.124 107.351C447.602 107.616 447.973 107.996 448.238 108.491C448.521 108.969 448.662 109.464 448.662 109.977C448.662 110.507 448.53 111.011 448.265 111.488C447.999 111.966 447.628 112.337 447.151 112.602C446.673 112.867 446.178 113 445.665 113H442.483C441.422 116.077 439.371 118.463 436.33 120.161C435.357 120.691 434.305 121.089 433.174 121.354C432.042 121.62 430.928 121.681 429.832 121.54C429.39 121.487 428.877 121.337 428.294 121.089C427.728 120.842 427.383 120.47 427.259 119.975C427.242 119.569 427.445 119.197 427.869 118.861C428.294 118.543 428.771 118.269 429.302 118.039C429.832 117.827 430.256 117.677 430.575 117.588C433.174 116.775 435.083 115.228 436.303 112.947C434.606 112.929 433.05 112.443 431.635 111.488C430.221 110.533 429.275 109.172 428.798 107.404C428.462 106.06 428.532 104.708 429.01 103.346C429.487 101.967 430.309 100.791 431.476 99.8187C432.643 98.8286 434.102 98.2539 435.852 98.0948C438.469 97.9533 440.485 98.7136 441.899 100.376C443.049 101.843 443.632 103.496 443.65 105.335C443.667 105.866 443.667 106.405 443.65 106.953L445.665 106.98ZM445.667 113C445.154 113 444.659 112.867 444.182 112.602C443.704 112.337 443.333 111.966 443.068 111.488C442.803 111.011 442.67 110.516 442.67 110.003C442.67 109.473 442.811 108.969 443.094 108.491C443.36 108.014 443.731 107.643 444.208 107.377C444.686 107.112 445.172 106.98 445.667 106.98H447.152C448.761 106.98 450.476 106.909 452.297 106.767C454.119 106.608 455.904 106.193 457.655 105.521C459.405 104.849 460.97 103.753 462.349 102.232C461.642 101.843 460.926 101.401 460.201 100.906C458.946 99.9867 457.646 99.2971 456.302 98.8374C455.029 98.5014 454.127 98.4926 453.597 98.8109C453.084 99.1291 452.704 99.58 452.457 100.163C451.537 101.79 450.671 102.4 449.857 101.993C449.062 101.569 448.62 100.676 448.531 99.3148C448.514 98.0948 449 96.9278 449.99 95.8139C450.998 94.7 452.483 94.0104 454.446 93.7452C456.408 93.48 458.831 94.0016 461.713 95.31C462.155 95.5222 462.579 95.7343 462.986 95.9465C464.259 96.6361 465.532 97.1665 466.805 97.5378C468.096 97.8914 469.855 98.0064 472.083 97.8826C472.701 97.8119 473.329 97.6881 473.966 97.5113C474.62 97.3345 475.265 97.2107 475.902 97.14C476.556 97.0693 477.193 97.1754 477.811 97.4583C478.536 97.8296 479.058 98.4219 479.376 99.2352C479.712 100.031 479.615 100.853 479.084 101.702C478.324 102.745 477.44 103.408 476.432 103.691C475.424 103.956 474.372 104.098 473.276 104.115C471.879 104.098 470.571 104.345 469.351 104.858C467.742 105.689 466.124 106.573 464.497 107.51C463.26 108.2 462.031 108.871 460.811 109.526C458.848 110.587 456.85 111.435 454.817 112.072C452.784 112.691 450.671 113 448.478 113H445.667ZM452.96 80.2191C454.269 79.8655 455.471 79.9716 456.567 80.5374C457.664 81.0855 458.371 81.8988 458.689 82.9774C458.954 84.2858 458.707 85.3732 457.947 86.2396C457.204 87.1059 456.373 87.6541 455.454 87.8839C453.632 88.2375 452.191 87.9016 451.13 86.8761C450.087 85.8329 449.654 84.6306 449.831 83.2691C450.025 81.9077 451.069 80.891 452.96 80.2191ZM517.637 106.98C518.132 106.98 518.609 107.103 519.069 107.351C519.547 107.616 519.918 107.996 520.183 108.491C520.466 108.969 520.607 109.464 520.607 109.977C520.607 110.507 520.475 111.011 520.21 111.488C519.944 111.966 519.573 112.337 519.096 112.602C518.636 112.85 518.15 112.982 517.637 113H516.311C517.725 115.44 518.097 117.526 517.425 119.259C516.753 120.992 515.462 122.389 513.553 123.45C511.643 124.51 509.53 125.253 507.214 125.677C504.562 126.208 501.892 126.261 499.204 125.837C496.322 125.377 493.75 124.298 491.487 122.601C489.223 120.903 487.605 118.587 486.633 115.652C485.873 113.371 485.793 110.976 486.394 108.465C486.995 106.361 488.056 104.54 489.577 103.001C491.115 101.445 492.813 100.217 494.669 99.3148C496.543 98.3954 498.294 97.8296 499.92 97.6174C501.706 97.4229 502.847 97.5909 503.342 98.1213C503.854 98.6341 503.262 99.3767 501.565 100.349C501.105 100.597 500.654 100.835 500.212 101.065C498.904 101.702 497.657 102.427 496.473 103.24C495.306 104.036 494.254 105.141 493.317 106.555C492.061 108.624 491.575 110.631 491.858 112.576C492.141 114.521 492.989 116.183 494.404 117.562C496.367 119.383 498.727 120.435 501.485 120.718C504.261 121.018 506.86 120.674 509.283 119.683C511.44 118.764 512.73 117.774 513.155 116.713C513.597 115.652 513.27 114.75 512.173 114.008C511.077 113.283 509.3 112.947 506.843 113C506.365 113.035 505.861 113.097 505.331 113.186C504.429 113.362 503.58 113.407 502.785 113.318C501.653 113.088 500.946 112.47 500.663 111.462C500.38 110.454 500.751 109.473 501.777 108.518C502.82 107.563 504.73 107.059 507.506 107.006L517.637 106.98ZM517.575 106.98C518.088 106.98 518.583 107.112 519.06 107.377C519.537 107.625 519.909 107.996 520.174 108.491C520.457 108.969 520.598 109.464 520.598 109.977C520.598 110.507 520.466 111.011 520.201 111.488C519.935 111.966 519.564 112.337 519.087 112.602C518.609 112.867 518.105 113 517.575 113C517.062 113 516.567 112.867 516.09 112.602C515.612 112.337 515.241 111.966 514.976 111.488C514.711 111.011 514.578 110.507 514.578 109.977C514.578 109.464 514.711 108.969 514.976 108.491C515.241 107.996 515.612 107.625 516.09 107.377C516.567 107.112 517.062 106.98 517.575 106.98ZM542.93 111.303C541.71 112.487 540.233 113.053 538.501 113C536.768 112.965 535.203 112.275 533.806 110.931C533.081 111.974 532.162 112.629 531.048 112.894C529.934 113.159 528.829 113.062 527.733 112.602C526.654 112.125 525.797 111.329 525.16 110.215C523.852 111.524 522.552 112.346 521.261 112.682C519.971 113 518.742 113.106 517.575 113V106.98C518.972 106.997 519.971 106.803 520.572 106.396C521.191 105.972 521.589 105.432 521.765 104.778C521.96 104.106 522.084 103.399 522.137 102.657C522.172 101.949 522.269 101.295 522.428 100.694C522.605 100.075 522.968 99.5888 523.516 99.2352C524.258 98.8109 525.019 98.7048 525.797 98.917C526.592 99.1291 527.149 99.6507 527.467 100.482C527.697 101.224 527.812 102.064 527.812 103.001C527.812 103.709 527.874 104.416 527.998 105.123C528.299 106.608 528.741 107.218 529.324 106.953C529.907 106.688 530.438 105.981 530.915 104.831C531.41 103.664 531.684 102.506 531.737 101.357C531.826 100.137 532.25 99.2883 533.011 98.8109C533.789 98.3158 534.593 98.3246 535.424 98.8374C536.255 99.3325 536.777 100.473 536.989 102.259L537.042 104.142C537.095 106.104 537.387 107.033 537.917 106.927C538.447 106.803 539.049 105.91 539.721 104.248C540.163 103.152 540.366 101.967 540.331 100.694C540.348 99.0849 540.72 97.9268 541.444 97.2196C542.187 96.5123 543.009 96.2913 543.911 96.5565C544.83 96.8217 545.546 97.5997 546.059 98.8904C546.554 100.305 546.705 101.799 546.51 103.373C546.333 104.946 545.935 106.414 545.317 107.775C544.556 109.313 543.761 110.489 542.93 111.303ZM523.94 90.1913C523.869 88.2994 524.32 86.6197 525.293 85.1522C526.265 83.667 527.512 82.5619 529.032 81.837C530.571 81.112 532.144 80.9264 533.753 81.28C535.486 81.7574 536.732 82.6945 537.493 84.0913C538.271 85.4704 538.235 87.0087 537.387 88.7061C536.379 90.3858 535.079 91.5174 533.488 92.1009C531.897 92.6667 530.394 92.8877 528.979 92.7639C527.565 92.6225 526.61 92.3572 526.115 91.9683C525.16 91.1549 524.966 90.5891 525.531 90.2709C526.097 89.9526 527.025 89.7051 528.316 89.5283C529.695 89.3338 530.995 88.989 532.215 88.4939C533.541 87.822 534.16 87.0883 534.071 86.2926C533.983 85.4793 533.417 84.9046 532.374 84.5687C531.066 84.2328 529.837 84.3388 528.687 84.887C527.538 85.4174 526.548 86.1777 525.717 87.1678C524.886 88.158 524.294 89.1658 523.94 90.1913ZM558.135 100.323C558.506 102.621 558.541 104.937 558.241 107.271C557.958 109.605 557.242 111.753 556.093 113.716C554.961 115.679 553.299 117.252 551.107 118.437C550.134 118.95 549.082 119.339 547.95 119.604C546.837 119.887 545.723 119.949 544.609 119.79C544.167 119.737 543.663 119.586 543.097 119.339C542.514 119.091 542.169 118.729 542.063 118.251C542.027 117.827 542.222 117.447 542.646 117.111C543.07 116.793 543.557 116.519 544.105 116.289C544.635 116.077 545.051 115.935 545.351 115.864C547.119 115.334 548.552 114.441 549.648 113.186C550.762 111.948 551.619 110.472 552.22 108.757C552.698 107.201 552.83 105.609 552.618 103.983C552.565 103.346 552.495 102.71 552.406 102.073C552.3 101.313 552.22 100.544 552.167 99.7657C552.114 99.3236 552.106 98.8462 552.141 98.3335C552.194 97.8207 552.344 97.3699 552.592 96.9809C552.839 96.6449 553.158 96.4062 553.547 96.2648C553.936 96.1233 554.333 96.0349 554.74 95.9996C555.147 95.9642 555.553 95.9819 555.96 96.0526C556.384 96.1233 556.747 96.3178 557.047 96.6361C557.366 97.0074 557.596 97.5025 557.737 98.1213C557.878 98.7401 557.985 99.3325 558.055 99.8983C558.073 100.04 558.099 100.181 558.135 100.323ZM552.963 83.9057C554.271 83.552 555.474 83.6581 556.57 84.2239C557.666 84.772 558.374 85.5854 558.692 86.6639C558.957 87.9723 558.709 89.0597 557.949 89.9261C557.207 90.7925 556.376 91.3406 555.456 91.5704C553.635 91.9241 552.194 91.5881 551.133 90.5626C550.09 89.5194 549.657 88.3171 549.834 86.9557C550.028 85.5942 551.071 84.5775 552.963 83.9057ZM570.623 108.677C571.86 108.589 572.629 108.102 572.93 107.218C573.23 106.334 573.08 105.477 572.479 104.646C571.896 103.797 570.888 103.381 569.456 103.399C568.731 103.452 568.129 103.744 567.652 104.274C567.175 104.805 566.98 105.494 567.069 106.343C567.192 106.997 567.599 107.554 568.289 108.014C568.996 108.456 569.774 108.677 570.623 108.677ZM579.163 106.98C579.658 106.98 580.144 107.103 580.621 107.351C581.099 107.616 581.47 107.996 581.735 108.491C582.018 108.969 582.159 109.464 582.159 109.977C582.159 110.507 582.027 111.011 581.762 111.488C581.496 111.966 581.125 112.337 580.648 112.602C580.17 112.867 579.675 113 579.163 113H575.98C574.919 116.077 572.868 118.463 569.827 120.161C568.854 120.691 567.802 121.089 566.671 121.354C565.539 121.62 564.425 121.681 563.329 121.54C562.887 121.487 562.374 121.337 561.791 121.089C561.225 120.842 560.88 120.47 560.756 119.975C560.739 119.569 560.942 119.197 561.366 118.861C561.791 118.543 562.268 118.269 562.799 118.039C563.329 117.827 563.753 117.677 564.072 117.588C566.671 116.775 568.58 115.228 569.8 112.947C568.103 112.929 566.547 112.443 565.133 111.488C563.718 110.533 562.772 109.172 562.295 107.404C561.959 106.06 562.029 104.708 562.507 103.346C562.984 101.967 563.806 100.791 564.973 99.8187C566.14 98.8286 567.599 98.2539 569.349 98.0948C571.966 97.9533 573.982 98.7136 575.396 100.376C576.546 101.843 577.129 103.496 577.147 105.335C577.165 105.866 577.165 106.405 577.147 106.953L579.163 106.98ZM592.425 102.365C591.258 102.206 590.268 102.347 589.454 102.789C588.659 103.231 588.146 103.726 587.916 104.274C587.686 104.876 587.713 105.583 587.996 106.396C588.296 107.192 588.783 107.872 589.454 108.438C590.286 109.092 591.214 109.42 592.239 109.42C593.282 109.402 594.175 108.995 594.918 108.2C595.731 107.245 595.988 106.14 595.687 104.884C595.404 103.629 594.317 102.789 592.425 102.365ZM579.164 106.98H579.588C580.455 106.927 581.091 106.599 581.498 105.998C581.922 105.397 582.276 104.654 582.559 103.77C582.718 103.364 582.886 102.957 583.063 102.55C583.328 101.719 583.708 100.941 584.203 100.217C585.052 98.9788 586.139 97.9975 587.465 97.2726C588.791 96.5477 590.277 96.1764 591.921 96.1587C594.131 96.1941 595.952 96.7157 597.384 97.7235C598.834 98.7313 599.886 100.013 600.541 101.569C601.212 103.125 601.487 104.752 601.363 106.449C601.044 109.437 599.895 111.621 597.915 113C595.952 114.397 593.742 115.016 591.284 114.857C588.844 114.697 586.749 113.796 584.999 112.151C584.539 111.674 584.141 111.161 583.805 110.613C582.904 111.532 581.852 112.204 580.649 112.629C580.172 112.876 579.677 113 579.164 113C578.651 113 578.156 112.867 577.679 112.602C577.201 112.337 576.83 111.966 576.565 111.488C576.3 111.011 576.167 110.507 576.167 109.977C576.167 109.464 576.3 108.969 576.565 108.491C576.83 107.996 577.201 107.625 577.679 107.377C578.156 107.112 578.651 106.98 579.164 106.98ZM601.343 80.4048C600.494 81.3949 599.795 81.722 599.247 81.3861C598.682 81.0501 598.478 80.4313 598.637 79.5296C599.062 78.0267 599.919 76.7359 601.21 75.6574C602.677 74.4728 604.118 73.8185 605.533 73.6948C606.947 73.5533 608.344 73.7655 609.723 74.3313C611.103 74.8794 612.473 75.5867 613.834 76.453C614.824 77.0542 615.947 77.4432 617.203 77.62C618.458 77.7968 619.572 77.6642 620.544 77.2222C621.517 76.7801 622.056 75.9403 622.162 74.7026C622.127 73.5887 621.561 72.6251 620.465 71.8117C619.386 70.9807 618.255 70.5829 617.07 70.6183C619.492 70.1762 621.287 70.5387 622.454 71.7057C623.638 72.8726 624.019 74.4374 623.594 76.4C623.294 77.6023 622.533 78.6367 621.313 79.503C620.093 80.3517 618.599 80.8114 616.831 80.8822C615.063 80.9529 613.198 80.4225 611.235 79.2909C609.131 78.0355 607.487 77.3283 606.302 77.1691C605.135 77.01 604.233 77.178 603.597 77.673C602.96 78.1681 602.421 78.787 601.979 79.5296C601.767 79.8301 601.555 80.1219 601.343 80.4048ZM611.58 85.9213C611.651 88.7326 611.606 92.3484 611.447 96.7687C611.288 101.171 611.023 104.734 610.652 107.457C610.316 109.543 609.83 111.108 609.193 112.151C608.574 113.194 607.982 113.46 607.416 112.947C606.868 112.417 606.523 110.843 606.382 108.226L605.957 87.7778C606.01 85.7622 606.479 84.4184 607.363 83.7465C608.265 83.0746 609.166 82.9509 610.068 83.3752C610.97 83.7996 611.474 84.6483 611.58 85.9213Z" fill="#333132"/>
</svg>
