<?xml version="1.0" standalone="no"?>
<!DOCTYPE svg PUBLIC "-//W3C//DTD SVG 20010904//EN"
 "http://www.w3.org/TR/2001/REC-SVG-20010904/DTD/svg10.dtd">
<svg version="1.0" xmlns="http://www.w3.org/2000/svg"
 width="384.000000pt" height="384.000000pt" viewBox="0 0 384.000000 384.000000"
 preserveAspectRatio="xMidYMid meet">
<metadata>
Created by potrace 1.14, written by Peter Selinger 2001-2017
</metadata>
<g transform="translate(0.000000,384.000000) scale(0.100000,-0.100000)"
fill="#000000" stroke="none">
<path d="M1805 3829 c-16 -5 -43 -11 -60 -14 -16 -3 -67 -24 -113 -46 -63 -31
-101 -58 -155 -113 -40 -40 -77 -79 -83 -87 -46 -63 -105 -205 -109 -264 -6
-92 103 -149 173 -90 23 19 47 64 43 82 -2 13 35 93 61 131 38 55 93 112 108
112 5 0 10 3 10 8 0 6 90 52 105 53 2 0 26 6 52 13 161 41 365 -46 451 -194
15 -25 27 -47 28 -50 0 -3 4 -13 7 -22 4 -10 10 -26 14 -35 9 -24 10 -31 12
-47 0 -8 14 -27 30 -43 21 -21 40 -30 71 -31 36 -3 46 2 75 32 29 31 33 41 30
80 -1 24 -8 61 -15 82 -13 41 -65 149 -81 168 -5 6 -25 31 -44 55 -20 24 -52
57 -73 73 -20 16 -39 33 -42 38 -12 18 -158 84 -223 100 -77 19 -222 23 -272
9z"/>
<path d="M815 3003 c-34 -8 -109 -44 -127 -62 -9 -9 -28 -27 -42 -39 -14 -13
-39 -51 -55 -85 l-29 -62 2 -1255 1 -1255 24 -49 c56 -113 179 -191 301 -190
90 2 118 12 290 108 36 20 85 46 110 59 25 12 47 25 50 28 3 3 39 23 80 45 41
21 77 41 80 44 3 3 23 14 45 25 22 11 48 26 58 34 9 8 17 11 17 7 0 -4 17 5
37 19 21 14 43 25 49 25 7 0 14 3 16 8 8 19 105 54 168 61 38 4 70 4 70 1 0
-4 10 -6 23 -5 12 1 29 -1 37 -5 27 -13 94 -48 140 -72 40 -22 72 -40 225
-124 22 -13 77 -42 123 -65 45 -24 82 -47 82 -52 0 -4 4 -6 9 -3 5 3 14 -1 21
-9 7 -8 17 -15 22 -15 5 0 45 -20 88 -45 91 -52 165 -74 230 -69 42 3 81 10
88 14 1 2 5 3 10 4 52 13 162 96 162 123 0 7 4 13 9 13 4 0 17 21 28 48 19 46
19 82 18 1307 l-1 1260 -28 53 c-25 46 -128 153 -145 150 -3 -1 -19 5 -36 13
-25 12 -206 14 -1130 15 -605 1 -1109 0 -1120 -3z"/>
</g>
</svg>
