<svg id="Layer_1" data-name="Layer 1" xmlns="http://www.w3.org/2000/svg" xmlns:xlink="http://www.w3.org/1999/xlink" viewBox="0 0 280.28 318.42"><defs><style>.cls-1{fill:#333132;}.cls-2{fill:url(#linear-gradient);}.cls-3{fill:url(#linear-gradient-2);}.cls-4{fill:url(#linear-gradient-3);}.cls-5{fill:url(#linear-gradient-4);}.cls-6{fill:url(#linear-gradient-5);}</style><linearGradient id="linear-gradient" x1="13.94" y1="316.47" x2="38.38" y2="261.67" gradientUnits="userSpaceOnUse"><stop offset="0" stop-color="#11c5e3"/><stop offset="1" stop-color="#4dd652"/></linearGradient><linearGradient id="linear-gradient-2" x1="49.16" y1="221.09" x2="202.01" y2="48.16" xlink:href="#linear-gradient"/><linearGradient id="linear-gradient-3" x1="62.16" y1="232.58" x2="215.01" y2="59.65" xlink:href="#linear-gradient"/><linearGradient id="linear-gradient-4" x1="62.68" y1="233.05" x2="215.54" y2="60.11" xlink:href="#linear-gradient"/><linearGradient id="linear-gradient-5" x1="5.72" y1="182.7" x2="158.57" y2="9.77" xlink:href="#linear-gradient"/></defs><path class="cls-1" d="M2.85,312.14a16.11,16.11,0,0,1-2.44-6.07,39.76,39.76,0,0,1,.78-15.25,16.44,16.44,0,0,1,.83-2,12.12,12.12,0,0,1,4.83-5.76,10.51,10.51,0,0,1,3.21-1.41l1.2-.31a22.44,22.44,0,0,1,5-.2,11.76,11.76,0,0,1,6.07,2.23,7.06,7.06,0,0,0,.67.67c.88.94,2,2.13.73,3.22-.57.41-1.14.78-1.71,1.14A21.63,21.63,0,0,1,19.61,290c-1,.46-2.18-.83-3-1.4-2-1.41-4-.83-5.55.88l-.1.15c-1.3,1.92-1.72,5.3-2,7.53-.26,3.06.37,6.33.32,9.49a8.55,8.55,0,0,0,1.09,2.18,4.94,4.94,0,0,0,2.23,1.87A7.28,7.28,0,0,0,15,311a4.09,4.09,0,0,0,1.35-.36,4.61,4.61,0,0,0,1.25-.94c.67-.67,2.07-2.49,2.75-2.75a1.18,1.18,0,0,1,.83,0c1,.21,2.44,1.4,3.58,2s2,.67,1.61,1.91c-.89,2.55-3,4.21-5.19,5.56a13.75,13.75,0,0,1-5.61,1.45c-.72,0-1.35,0-2-.05a22.19,22.19,0,0,1-4.05-.73,2.33,2.33,0,0,1-.57-.21A13.19,13.19,0,0,1,2.85,312.14ZM15.1,287.91"/><path class="cls-1" d="M43.52,291.23c-.46-.52-.21-1.56-.21-2.7,0-.67-.2-5.6-.05-5.86.37-.62,2.7-.41,3.43-.41h3.52c2.08,0,4.42.05,6.54.05a23.29,23.29,0,0,1,3.32.31h.06c3.26.67,6.38,2.39,7.31,5.91a13.84,13.84,0,0,1-2.39,12.09c-2.95,3.58-7.31,6.18-11.1,8.2-.52.21-1,.47-1.4.68.05,1.71.1,3.47.16,5.18,0,3.22,0,3.22-3.48,3-1.4-.1-4.41.42-5.29-.83-.26-.62,0-6.22,0-7.31C43.83,303.48,43.57,297.35,43.52,291.23Zm8.82,8.82c2-1.09,8.15-4.2,8.15-6.79-.05-3-6.38-2.34-8.3-2.24.05,1.61.05,3.17.05,4.73S52.29,298.65,52.34,300.05Zm6.54-8.61"/><path class="cls-1" d="M77,318.42c-6.85-.05-5.09-4.1-4.93-10.48,0-7.52-.1-15.1,0-22.62.1-4.26.57-4.05,4.15-4,.93,0,3.89-.21,4.25.88.52,2,.26,7.16.21,9.5v5.39c.94,0,1.87.16,2.54.16,2.13.05,4.26.1,6.39.05,1.6-.05,3.16-.15,4.77-.21-.1-3.89-.21-7.78-.26-11.72,0-4.2.52-4,4-4.05.93,0,3.89-.31,4.3.78.52,2,.37,7.16.37,9.44.15,7.53.36,15,.52,22.52,0,4.05-.11,4-3.58,4.15-6.85.11-5.14-3.89-5.19-10.27v-2.13c-1.09.05-2.29.05-2.7.05a16,16,0,0,1-2.28.06c-3,0-5.92-.06-8.88,0v8.4C80.58,318.37,80.48,318.32,77,318.42Z"/><path class="cls-1" d="M107.85,305.14c0-3.27-.1-6.54-.2-9.81-.06-1.92-.57-12.19.2-13.33.63-.89,5.24-.68,6.28-.57a75.72,75.72,0,0,0,9,.1c6.38,0,6-.31,5.76,5.65-.1,2.81.16,3.38-2.39,3.27-3.52-.1-6.79-.26-10.37-.15,0,1.35,0,3,.1,4.46,2.85.21,6.28,0,9.24.05,1.76.05,1.45,1.35,1.45,4.2,0,.83.1,3.84-.31,4.26s-2.8.15-3.53.15c-2.23-.05-4.46,0-6.69.06,0,1.86.1,3.68.15,5.55,3.43,0,6.85,0,10.28,0,2.49.15,2.33.62,2.33,4.15,0,1,.1,3.89-.52,4.25-1.14.52-4.1.26-5.45.26-4.36-.05-8.66,0-13,0-2.34-.05-2.28-.15-2.34-3.63,0-.88.06-1.61.11-2.23,0-.31-.11-.62-.16-1C107.75,308.93,107.85,307,107.85,305.14Z"/><path class="cls-1" d="M133,289a9.51,9.51,0,0,1-.16-2.44,6.52,6.52,0,0,1,.63-3.47,3.37,3.37,0,0,1,.57-.68c1.71-1.4,6-1.14,8-1.14,1.35,0,2.75,0,4.1-.1a33.74,33.74,0,0,1,4.46.2,9.89,9.89,0,0,1,4.93,2,7.35,7.35,0,0,1,2.18,2.8,9.68,9.68,0,0,1,.72,4.25,13.12,13.12,0,0,1-1.09,4.72,17,17,0,0,1-2.23,3.69,20.29,20.29,0,0,1-4.15,3.84A38.64,38.64,0,0,1,158.06,313c.42.88,1.76,3.74.42,4.15s-8.15.78-8.93-.31c-.15-.31-.41-2.07-.78-2.85-.41-.94-1.29-2.34-1.81-3.27a10.09,10.09,0,0,0-3.22-3.84c-.67.31-1.3.62-2,.88,0,2.13,0,4.26,0,6.38,0,3.58-.47,3.32-3.68,3.43-6.54.1-5.09-2.44-5-8.46,0-4.1-.06-8.2-.11-12.3,0-2.07-.1-4.15-.1-6.22A14.19,14.19,0,0,1,133,289Zm9,1h-.42c.11,1.92.06,4.35.06,5.5v3a40.47,40.47,0,0,0,4.41-2.24,4.14,4.14,0,0,0,.62-.41,16,16,0,0,0,3.68-3.17,7.32,7.32,0,0,0,.94-1.5,2,2,0,0,0,.2-.73,6.58,6.58,0,0,0-1.86-.52A46.28,46.28,0,0,0,142,290Z"/><path class="cls-1" d="M184.61,313.13c0,.67.1,3.58-.16,4s-2.8.37-3.27.42c-2,.1-3.73-.16-5.7-.16-1.82,0-3.64-.05-5.4-.05-1.51.05-2.65,0-4.1-.05a17.74,17.74,0,0,0-2.54.21c-1,.05-.83-1.87-.88-2.6a61.82,61.82,0,0,1,.1-6.95c-.1-7.52-.42-15.05-.52-22.57.05-4.2.52-4,4.1-4.05.93,0,3.84-.31,4.25.78.52,2,.37,7.16.42,9.44.1,5.81.26,11.63.36,17.39.68.05,1.3.1,1.77.1,3.27,0,6.59-.1,9.86,0C184.92,309,184.61,310.43,184.61,313.13Z"/><path class="cls-1" d="M191.45,318.42c-6.85-.05-3.89-4.1-1.87-10.48,2.23-7.52,4.36-15.1,6.59-22.62,1.35-4.26,1.77-4.05,5.35-4h1.09c1.24-.1,3.32-.15,3.94.78,1.09,2,2.44,7.16,3.11,9.44,2.23,7.53,4.62,15,6.9,22.52,1.2,4.05,1,4-2.38,4.15-4,.05-5.45-1.24-6.39-3.63-.67,0-1.6-.1-2.18-.1s-1.45.1-2.23.1c-2.12.05-4.25.05-6.38.05a.47.47,0,0,0-.26-.05,1.52,1.52,0,0,1-.46-.1C195.08,318.37,194.93,318.32,191.45,318.42ZM203.28,306c.73,0,1.45-.05,2.13-.11-1.09-3.68-2.23-7.36-3.37-11.1L198.77,306c.2,0,.41,0,.62,0C200.69,306.07,202,306,203.28,306Z"/><path class="cls-1" d="M224.85,318.42c-6.85-.05-5.09-4.1-4.93-10.48.05-7.52-.11-15.1-.06-22.62.11-4.26.57-4.05,4.16-4,.36,0,1-.05,1.71,0,1.14-.05,3.42-.15,4.15.78,1.4,2,3.42,7.16,4.46,9.44,1.76,4.1,3.58,8.2,5.45,12.25q-.24-9.18-.42-18.42c0-4.2.52-4,4-4.05.93,0,3.89-.31,4.31.78.52,2,.36,7.16.36,9.44.16,7.53.36,15,.52,22.52,0,4.05-.1,4-3.58,4.15a13.48,13.48,0,0,1-1.45,0c-.32,0-.63,0-1,0-6.8.11-6.8-3.89-9.55-10.27-1.45-3.43-3-6.8-4.51-10.17,0,5.5.05,11.05.05,16.55C228.48,318.37,228.37,318.32,224.85,318.42Z"/><path class="cls-1" d="M253.26,308.82c0-3.73-.1-7.47-.21-11.26l-.05-.21v-.72c-.05-2.13-.16-4.31-.21-6.49s0-4.15,0-6.28c0-.2,0-1.66.42-1.66s-.21.21.1-.1,8.15-.47,9.18-.47a2.68,2.68,0,0,1,.63.05c1.14,0,2.23.06,3.37.16,6.54.78,11.05,3.79,13.07,10.27a29.19,29.19,0,0,1-.31,14.53,20.31,20.31,0,0,1-2.23,4.41,14.64,14.64,0,0,1-4.3,4,14.93,14.93,0,0,1-5,1.81,60.3,60.3,0,0,1-6.33.21,27.32,27.32,0,0,1-3.73.05c-1.09-.05-3.53.31-4.21-.62S253.21,310.17,253.26,308.82Zm17.48-3.94.06-.21c.83-3.48,1-11-1.4-13.8-2-2.44-5.09-2-7.84-1.87.11,2,.11,4.31.11,6.38-.06,4.93.05,9.81.31,14.74a17.15,17.15,0,0,0,4.3-.31C268.88,309.29,270,307.26,270.74,304.88Z"/><path class="cls-1" d="M35.6,318.21c-6.85.11-5.13-3.89-5.13-10.27-.11-7.52-.42-15.05-.52-22.57.05-4.2.52-4,4.1-4.05.93,0,3.84-.31,4.25.78.52,2,.36,7.16.42,9.44.1,7.53.36,15,.51,22.52C39.23,318.11,39.13,318.06,35.6,318.21Z"/><circle class="cls-2" cx="33.47" cy="272.68" r="5.03"/><path class="cls-3" d="M170.22,96.72h-.62a5.72,5.72,0,0,0-5.72,5.72v9.69H110.06a5.72,5.72,0,0,0-5.72,5.71v.63a5.72,5.72,0,0,0,5.72,5.72h60.16a5.72,5.72,0,0,0,5.72-5.72v-16A5.72,5.72,0,0,0,170.22,96.72Z"/><path class="cls-4" d="M169.94,135.29h-.07a6,6,0,0,0-5.88,4.9,24.34,24.34,0,0,1-47.69,0,6,6,0,0,0-5.89-4.9h-.07a6,6,0,0,0-5.88,7.09,36.38,36.38,0,0,0,71.37,0A6,6,0,0,0,169.94,135.29Z"/><path class="cls-5" d="M204.46,51.67H75.82A21.26,21.26,0,0,0,54.56,72.93V217.87A21.26,21.26,0,0,0,86,236.52l43.9-24a21.28,21.28,0,0,1,20.42,0l43.9,24a21.26,21.26,0,0,0,31.47-18.65V72.93A21.26,21.26,0,0,0,204.46,51.67Zm-64.32,135.1a55.1,55.1,0,1,1,55.1-55.09A55.09,55.09,0,0,1,140.14,186.77Z"/><path class="cls-6" d="M173.51,40.57h-.08a6.74,6.74,0,0,1-6.56-5.46,27.15,27.15,0,0,0-53.19,0,6.74,6.74,0,0,1-6.56,5.46H107a6.66,6.66,0,0,1-6.57-7.9,40.58,40.58,0,0,1,79.61,0A6.66,6.66,0,0,1,173.51,40.57Z"/></svg>