<svg id="Layer_1" data-name="Layer 1" xmlns="http://www.w3.org/2000/svg" viewBox="0 0 281.38 319.67"><path d="M174.19,40.73h-.08a6.77,6.77,0,0,1-6.59-5.48,27.25,27.25,0,0,0-53.39,0,6.77,6.77,0,0,1-6.59,5.48h-.08a6.68,6.68,0,0,1-6.59-7.93,40.74,40.74,0,0,1,79.91,0A6.68,6.68,0,0,1,174.19,40.73Z"/><path d="M2.86,313.37a16.33,16.33,0,0,1-2.45-6.1A40.08,40.08,0,0,1,1.19,292,17.33,17.33,0,0,1,2,290a12.14,12.14,0,0,1,4.84-5.78,10.49,10.49,0,0,1,3.23-1.41l1.2-.31a22.65,22.65,0,0,1,5-.21,11.72,11.72,0,0,1,6.09,2.24,8.72,8.72,0,0,0,.68.68c.89.93,2,2.13.73,3.23-.57.41-1.14.78-1.72,1.14a20.28,20.28,0,0,1-2.39,1.56c-1.05.47-2.19-.83-3-1.4-2-1.41-4.07-.84-5.58.88l-.1.16c-1.3,1.93-1.72,5.31-2,7.55-.26,3.08.36,6.36.31,9.53a8.33,8.33,0,0,0,1.1,2.19,4.88,4.88,0,0,0,2.24,1.88,7.38,7.38,0,0,0,2.39.31,4.21,4.21,0,0,0,1.36-.36,4.82,4.82,0,0,0,1.25-.94c.67-.68,2.08-2.5,2.76-2.76a1.08,1.08,0,0,1,.83,0c1,.21,2.45,1.4,3.6,2s2,.67,1.61,1.92c-.89,2.56-3,4.22-5.21,5.58a13.65,13.65,0,0,1-5.62,1.46c-.73,0-1.36,0-2-.06a20.71,20.71,0,0,1-4.06-.73,2.59,2.59,0,0,1-.57-.2A13.33,13.33,0,0,1,2.86,313.37ZM15.15,289"/><path d="M43.69,292.37c-.47-.52-.21-1.56-.21-2.7,0-.68-.2-5.63,0-5.89.37-.63,2.71-.42,3.44-.42h3.54c2.09,0,4.43.05,6.57.05a25.17,25.17,0,0,1,3.33.32h0c3.28.67,6.41,2.39,7.35,5.94a14,14,0,0,1-2.4,12.13c-3,3.6-7.34,6.2-11.15,8.23-.52.21-1,.47-1.4.68.05,1.72.1,3.49.15,5.21,0,3.23.05,3.23-3.49,3-1.4-.1-4.43.42-5.31-.83-.26-.63,0-6.25,0-7.35C44,304.67,43.74,298.52,43.69,292.37Zm8.86,8.86c2-1.09,8.18-4.22,8.18-6.82-.06-3-6.41-2.35-8.34-2.24,0,1.61,0,3.17,0,4.74S52.5,299.82,52.55,301.23Zm6.56-8.65"/><path d="M77.25,319.67c-6.87-.05-5.1-4.12-5-10.52,0-7.56-.1-15.16,0-22.71.1-4.28.57-4.07,4.17-4,.94,0,3.9-.2,4.27.89.52,2,.26,7.19.21,9.53v5.42c.94,0,1.87.16,2.55.16,2.14.05,4.27.1,6.41.05,1.61-.05,3.18-.16,4.79-.21-.1-3.91-.21-7.81-.26-11.77,0-4.22.52-4,4.06-4.07.94,0,3.91-.31,4.33.79.52,2,.36,7.18.36,9.48.16,7.55.36,15.05.52,22.6,0,4.07-.1,4-3.59,4.17-6.88.11-5.16-3.91-5.21-10.31V307c-1.1.05-2.29.05-2.71.05a16.11,16.11,0,0,1-2.29.06c-3,0-5.94-.06-8.91,0v8.43C80.9,319.62,80.79,319.57,77.25,319.67Z"/><path d="M108.28,306.33c0-3.28-.11-6.56-.21-9.84,0-1.93-.57-12.24.21-13.39.62-.88,5.26-.68,6.3-.57a76.22,76.22,0,0,0,9.06.1c6.41-.05,6-.31,5.79,5.68-.11,2.81.15,3.39-2.4,3.28-3.54-.1-6.82-.26-10.42-.15,0,1.35,0,3,.11,4.48,2.86.2,6.3,0,9.27.05,1.77,0,1.46,1.35,1.46,4.22,0,.83.1,3.85-.32,4.27s-2.81.15-3.54.15c-2.24-.05-4.48,0-6.72.06,0,1.87.11,3.7.16,5.57,3.44,0,6.87-.05,10.31-.05,2.5.15,2.35.62,2.35,4.17,0,1,.1,3.9-.52,4.27-1.15.52-4.12.26-5.47.26-4.38-.05-8.7,0-13.08,0-2.34-.05-2.29-.16-2.34-3.65,0-.88,0-1.61.1-2.24,0-.31-.1-.62-.15-1C108.17,310.14,108.28,308.21,108.28,306.33Z"/><path d="M133.52,290.13a9.51,9.51,0,0,1-.16-2.44,6.58,6.58,0,0,1,.63-3.49,4.19,4.19,0,0,1,.57-.68c1.72-1.41,6.05-1.15,8-1.15,1.36,0,2.77-.05,4.12-.1a32.36,32.36,0,0,1,4.48.21,10,10,0,0,1,4.95,2,7.49,7.49,0,0,1,2.19,2.81,10,10,0,0,1,.73,4.27,13.46,13.46,0,0,1-1.1,4.74,17.53,17.53,0,0,1-2.24,3.7,20.18,20.18,0,0,1-4.17,3.85,38.92,38.92,0,0,1,7.14,10.37c.42.89,1.77,3.75.42,4.17s-8.18.78-9-.32c-.16-.31-.42-2.08-.78-2.86-.42-.94-1.31-2.34-1.83-3.28a10,10,0,0,0-3.23-3.86c-.67.32-1.3.63-2,.89,0,2.13,0,4.27.06,6.41-.06,3.59-.47,3.33-3.7,3.43-6.56.11-5.11-2.44-5-8.49,0-4.11-.05-8.23-.11-12.34,0-2.09-.1-4.17-.1-6.25A14.38,14.38,0,0,1,133.52,290.13Zm9.06,1h-.41c.1,1.93.05,4.38.05,5.53v3a40.79,40.79,0,0,0,4.43-2.24,4.52,4.52,0,0,0,.62-.42,16,16,0,0,0,3.7-3.18,7,7,0,0,0,.94-1.51,2,2,0,0,0,.21-.73,6.61,6.61,0,0,0-1.88-.52A47.79,47.79,0,0,0,142.58,291.12Z"/><path d="M185.33,314.36c0,.67.11,3.59-.16,4s-2.81.36-3.28.41c-2,.11-3.75-.15-5.73-.15-1.82,0-3.64-.05-5.41-.05-1.51.05-2.66,0-4.12-.06a19.33,19.33,0,0,0-2.55.21c-1,0-.83-1.87-.89-2.6a62.31,62.31,0,0,1,.11-7c-.11-7.56-.42-15.11-.52-22.66.05-4.22.52-4,4.11-4.07.94,0,3.86-.31,4.27.79.52,2,.37,7.18.42,9.48.1,5.83.26,11.66.36,17.45.68.05,1.31.1,1.78.1,3.28-.05,6.61-.1,9.89-.05C185.64,310.24,185.33,311.65,185.33,314.36Z"/><path d="M192.2,319.67c-6.88-.05-3.91-4.12-1.87-10.52,2.24-7.56,4.37-15.16,6.61-22.71,1.36-4.28,1.77-4.07,5.37-4h1.09c1.25-.1,3.33-.15,4,.79,1.09,2,2.45,7.18,3.12,9.48,2.24,7.55,4.64,15.05,6.93,22.6,1.2,4.07,1,4-2.39,4.17-4,.05-5.47-1.25-6.41-3.65-.68,0-1.62-.1-2.19-.1-.73.05-1.46.1-2.24.1-2.13.06-4.27.06-6.41.06a.4.4,0,0,0-.26-.06,1.52,1.52,0,0,1-.46-.1C195.85,319.62,195.69,319.57,192.2,319.67Zm11.88-12.5c.73,0,1.46-.05,2.13-.11-1.09-3.69-2.24-7.39-3.38-11.14q-1.65,5.63-3.28,11.25c.2,0,.41.05.62.05C201.47,307.27,202.78,307.22,204.08,307.17Z"/><path d="M225.73,319.67c-6.88-.05-5.11-4.12-4.95-10.52.05-7.56-.11-15.16-.05-22.71.1-4.28.57-4.07,4.16-4,.37,0,1.05-.05,1.72,0,1.15-.05,3.44-.15,4.17.79,1.41,2,3.44,7.18,4.48,9.48,1.77,4.11,3.59,8.23,5.47,12.29-.16-6.15-.31-12.29-.42-18.49,0-4.22.52-4,4.07-4.07.93,0,3.9-.31,4.32.79.52,2,.36,7.18.36,9.48.16,7.55.37,15.05.52,22.6.06,4.07-.1,4-3.59,4.17a13.77,13.77,0,0,1-1.46,0c-.31,0-.62,0-1,0-6.82.11-6.82-3.91-9.59-10.31-1.45-3.44-3-6.83-4.53-10.21,0,5.52,0,11.09,0,16.61C229.37,319.62,229.27,319.57,225.73,319.67Z"/><path d="M254.25,310c-.05-3.75-.1-7.5-.21-11.3l0-.21v-.73c-.05-2.13-.15-4.32-.21-6.51s-.05-4.17-.05-6.3c0-.21.05-1.67.42-1.67s-.21.21.1-.1,8.18-.47,9.22-.47a2.68,2.68,0,0,1,.63.05c1.14,0,2.24,0,3.38.16,6.57.78,11.1,3.8,13.13,10.31a29.39,29.39,0,0,1-.31,14.58,21,21,0,0,1-2.24,4.43,14.4,14.4,0,0,1-4.33,4,15,15,0,0,1-5,1.83c-2,.31-4.27.1-6.35.2a29.37,29.37,0,0,1-3.75.06c-1.1-.06-3.54.31-4.22-.63S254.2,311.39,254.25,310Zm17.56-4,.05-.2c.83-3.49,1-11.05-1.41-13.86-2-2.45-5.1-2-7.86-1.88.1,2,.1,4.33.1,6.41-.05,4.95.05,9.85.31,14.79a16.93,16.93,0,0,0,4.33-.31C269.93,310.5,271.08,308.47,271.81,306.07Z"/><path d="M35.74,319.46c-6.87.11-5.15-3.91-5.15-10.31-.11-7.56-.42-15.11-.52-22.66.05-4.22.52-4,4.11-4.07.94,0,3.85-.31,4.27.79.52,2,.37,7.18.42,9.48.1,7.55.36,15.05.52,22.6C39.39,319.36,39.28,319.3,35.74,319.46Z"/><circle cx="33.6" cy="273.75" r="5.05"/><path d="M170.89,97.1h-.63a5.74,5.74,0,0,0-5.74,5.74v9.73h-54a5.74,5.74,0,0,0-5.74,5.74v.62a5.75,5.75,0,0,0,5.74,5.75h60.4a5.75,5.75,0,0,0,5.74-5.75V102.84A5.74,5.74,0,0,0,170.89,97.1Z"/><path d="M170.61,135.82h-.07a6.06,6.06,0,0,0-5.91,4.92,24.44,24.44,0,0,1-47.88,0,6.06,6.06,0,0,0-5.91-4.92h-.07a6,6,0,0,0-5.91,7.12,36.53,36.53,0,0,0,71.66,0A6,6,0,0,0,170.61,135.82Z"/><path d="M205.26,51.88H76.12A21.33,21.33,0,0,0,54.78,73.22V218.73a21.34,21.34,0,0,0,31.59,18.72l44.07-24.13a21.32,21.32,0,0,1,20.5,0L195,237.45a21.34,21.34,0,0,0,31.59-18.72V73.22A21.33,21.33,0,0,0,205.26,51.88ZM140.69,187.51A55.32,55.32,0,1,1,196,132.19,55.31,55.31,0,0,1,140.69,187.51Z"/></svg>