<svg width="32" height="32" viewBox="0 0 32 32" fill="none" xmlns="http://www.w3.org/2000/svg">
<path d="M29.3307 22.3199V6.22659C29.3307 4.62659 28.0241 3.43993 26.4374 3.57326H26.3574C23.5574 3.81326 19.3041 5.23993 16.9307 6.73326L16.7041 6.87993C16.3174 7.11993 15.6774 7.11993 15.2907 6.87993L14.9574 6.67993C12.5841 5.19993 8.34406 3.78659 5.54406 3.55993C3.9574 3.42659 2.66406 4.62659 2.66406 6.21326V22.3199C2.66406 23.5999 3.70406 24.7999 4.98406 24.9599L5.37073 25.0133C8.26406 25.3999 12.7307 26.8666 15.2907 28.2666L15.3441 28.2933C15.7041 28.4933 16.2774 28.4933 16.6241 28.2933C19.1841 26.8799 23.6641 25.3999 26.5707 25.0133L27.0107 24.9599C28.2907 24.7999 29.3307 23.5999 29.3307 22.3199Z" stroke="#11C5E3" stroke-width="1.5" stroke-linecap="round" stroke-linejoin="round"/>
<path d="M16 7.32031V27.3203" stroke="#11C5E3" stroke-width="1.5" stroke-linecap="round" stroke-linejoin="round"/>
<path d="M10.3359 11.3203H7.33594" stroke="#11C5E3" stroke-width="1.5" stroke-linecap="round" stroke-linejoin="round"/>
<path d="M11.3359 15.3203H7.33594" stroke="#11C5E3" stroke-width="1.5" stroke-linecap="round" stroke-linejoin="round"/>
</svg>
