<svg width="40" height="40" viewBox="0 0 40 40" fill="none" xmlns="http://www.w3.org/2000/svg">
<g clip-path="url(#clip0_530_27602)">
<path d="M8.668 0C7.25117 0.00158808 5.89283 0.565125 4.89098 1.56698C3.88913 2.56883 3.32559 3.92717 3.324 5.344V5.4C1.426 5.786 0 7.4 0 9.344V31.118C0 33.35 1.894 35.166 4.22 35.166H16.034V31.52L12.27 29.708C11.8323 29.4971 11.463 29.1669 11.2045 28.7554C10.946 28.3439 10.8089 27.8679 10.8089 27.382C10.8089 26.8961 10.946 26.42 11.2045 26.0086C11.463 25.5971 11.8323 25.2669 12.27 25.056L23.714 19.55C24.509 19.1641 25.3813 18.9636 26.265 18.9636C27.1487 18.9636 28.021 19.1641 28.816 19.55L29.816 20.026V0H8.668ZM23.068 5.296H5.6C5.61364 4.49118 5.94282 3.7239 6.51665 3.15942C7.09048 2.59494 7.86306 2.27841 8.668 2.278H27.356C26.822 4.018 25.1 5.296 23.06 5.296H23.068Z" fill="#11C5E3"/>
<path d="M26.2642 35.8C25.3809 35.8009 24.509 35.6012 23.7142 35.216L17.7422 32.342V35.776C17.7427 35.9201 17.7837 36.0612 17.8604 36.1832C17.9371 36.3052 18.0465 36.4032 18.1762 36.466L24.7582 39.632C25.2573 39.8724 25.8042 39.9972 26.3582 39.9972C26.9122 39.9972 27.459 39.8724 27.9582 39.632L34.5402 36.466C34.6698 36.4032 34.7793 36.3052 34.856 36.1832C34.9327 36.0612 34.9737 35.9201 34.9742 35.776V32.248L28.8062 35.214C28.0139 35.5987 27.1449 35.799 26.2642 35.8Z" fill="#11C5E3"/>
<path d="M39.519 26.5997L36.691 25.2397L36.141 24.9737L28.075 21.0937C27.5101 20.8212 26.8911 20.6797 26.264 20.6797C25.6368 20.6797 25.0178 20.8212 24.453 21.0937L16.387 24.9737L16.033 25.1457L13.009 26.5997C12.8611 26.6715 12.7364 26.7835 12.6491 26.9228C12.5619 27.0622 12.5156 27.2233 12.5156 27.3877C12.5156 27.5521 12.5619 27.7132 12.6491 27.8525C12.7364 27.9919 12.8611 28.1039 13.009 28.1757L16.033 29.6297L16.887 30.0417L17.741 30.4417L24.453 33.6717C25.0181 33.9432 25.637 34.0841 26.264 34.0841C26.8909 34.0841 27.5098 33.9432 28.075 33.6717L34.983 30.3477L35.837 29.9477L36.349 29.6997V39.1737C36.349 39.3943 36.4366 39.606 36.5927 39.762C36.7487 39.918 36.9603 40.0057 37.181 40.0057C37.4016 40.0057 37.6133 39.918 37.7693 39.762C37.9253 39.606 38.013 39.3943 38.013 39.1737V28.8937L39.519 28.1697C39.6669 28.0979 39.7916 27.9859 39.8788 27.8465C39.966 27.7072 40.0123 27.5461 40.0123 27.3817C40.0123 27.2173 39.966 27.0562 39.8788 26.9168C39.7916 26.7775 39.6669 26.6655 39.519 26.5937V26.5997Z" fill="#11C5E3"/>
</g>
<defs>
<clipPath id="clip0_530_27602">
<rect width="40" height="40" fill="white"/>
</clipPath>
</defs>
</svg>
