<svg width="40" height="40" viewBox="0 0 40 40" fill="none" xmlns="http://www.w3.org/2000/svg">
<g clip-path="url(#clip0_530_27606)">
<path d="M37.8 14.7276H36.532V11.7276C36.5319 11.3811 36.4465 11.0399 36.2834 10.7342C36.1204 10.4284 35.8845 10.1675 35.5968 9.97445C35.3091 9.78137 34.9782 9.66206 34.6335 9.62703C34.2888 9.592 33.9407 9.64233 33.62 9.77359L22.42 14.3576C21.9941 14.5305 21.5509 14.6572 21.098 14.7356H18.898C18.4451 14.6572 18.0019 14.5305 17.576 14.3576L6.376 9.77359C6.05633 9.64427 5.70986 9.59519 5.36685 9.63064C5.02384 9.66609 4.69473 9.78499 4.40826 9.97696C4.1218 10.1689 3.88669 10.4281 3.72349 10.7319C3.56028 11.0356 3.47394 11.3748 3.472 11.7196V14.7196H2.2C1.61652 14.7196 1.05695 14.9514 0.644365 15.364C0.231785 15.7765 0 16.3361 0 16.9196L0 37.7996C0 38.3831 0.231785 38.9426 0.644365 39.3552C1.05695 39.7678 1.61652 39.9996 2.2 39.9996H37.8C38.3835 39.9996 38.9431 39.7678 39.3556 39.3552C39.7682 38.9426 40 38.3831 40 37.7996V16.9296C40.0003 16.6405 39.9436 16.3542 39.8331 16.0871C39.7227 15.8199 39.5607 15.5772 39.3563 15.3727C39.152 15.1682 38.9094 15.0059 38.6424 14.8952C38.3753 14.7846 38.0891 14.7276 37.8 14.7276ZM2.2 37.8536C2.18462 37.8536 2.16986 37.8475 2.15899 37.8366C2.14811 37.8257 2.142 37.811 2.142 37.7956V16.9296C2.14252 16.9146 2.14886 16.9003 2.15968 16.8899C2.1705 16.8794 2.18496 16.8736 2.2 16.8736H3.468V32.3296C3.46786 32.7488 3.59257 33.1585 3.82625 33.5065C4.05992 33.8545 4.39195 34.1251 4.78 34.2836L13.498 37.8536H2.2ZM17.27 32.3116C17.2504 32.3626 17.2205 32.409 17.1823 32.448C17.144 32.487 17.0982 32.5178 17.0476 32.5384C16.997 32.559 16.9427 32.569 16.8881 32.5679C16.8335 32.5667 16.7797 32.5544 16.73 32.5316L6.874 28.4116C6.82397 28.3902 6.77864 28.3591 6.74061 28.3202C6.70257 28.2813 6.67258 28.2353 6.65233 28.1847C6.63209 28.1342 6.622 28.0802 6.62262 28.0258C6.62325 27.9714 6.63459 27.9176 6.656 27.8676C6.67741 27.8176 6.70846 27.7722 6.74738 27.7342C6.7863 27.6962 6.83234 27.6662 6.88285 27.6459C6.93337 27.6257 6.98737 27.6156 7.04179 27.6162C7.09621 27.6168 7.14997 27.6282 7.2 27.6496L17.056 31.7716C17.1561 31.8148 17.2352 31.8957 17.276 31.9968C17.3168 32.0979 17.3161 32.211 17.274 32.3116H17.27ZM17.292 29.1516C17.2598 29.2251 17.207 29.2877 17.1398 29.3317C17.0727 29.3758 16.9943 29.3993 16.914 29.3996C16.8597 29.3998 16.8059 29.3889 16.756 29.3676L6.9 25.2516C6.84907 25.2314 6.80268 25.2013 6.76353 25.163C6.72438 25.1247 6.69327 25.079 6.672 25.0285C6.65073 24.978 6.63975 24.9238 6.63968 24.869C6.63961 24.8143 6.65047 24.76 6.67161 24.7095C6.69275 24.659 6.72375 24.6132 6.76281 24.5748C6.80186 24.5364 6.84818 24.5061 6.89906 24.4858C6.94993 24.4655 7.00434 24.4556 7.05911 24.4566C7.11387 24.4576 7.16789 24.4695 7.218 24.4916L17.074 28.6116C17.1748 28.654 17.2548 28.7346 17.2964 28.8358C17.338 28.937 17.3379 29.0505 17.296 29.1516H17.292ZM17.312 25.9916C17.2914 26.0416 17.2611 26.0871 17.2229 26.1254C17.1847 26.1636 17.1392 26.194 17.0892 26.2146C17.0392 26.2352 16.9856 26.2458 16.9315 26.2456C16.8774 26.2454 16.8239 26.2345 16.774 26.2136L6.922 22.0916C6.87107 22.0714 6.82468 22.0413 6.78553 22.003C6.74638 21.9647 6.71527 21.919 6.694 21.8685C6.67273 21.818 6.66175 21.7638 6.66168 21.709C6.66161 21.6543 6.67247 21.6 6.69361 21.5495C6.71475 21.499 6.74575 21.4532 6.78481 21.4148C6.82386 21.3764 6.87018 21.3461 6.92106 21.3258C6.97193 21.3055 7.02634 21.2956 7.08111 21.2966C7.13587 21.2976 7.18989 21.3095 7.24 21.3316L17.096 25.4536C17.1468 25.4743 17.193 25.505 17.2317 25.5439C17.2705 25.5828 17.301 25.6291 17.3215 25.68C17.3421 25.731 17.3521 25.7855 17.3512 25.8404C17.3502 25.8953 17.3383 25.9494 17.316 25.9996L17.312 25.9916ZM17.334 22.8336C17.2912 22.9341 17.2104 23.0136 17.1093 23.0548C17.0082 23.096 16.8948 23.0956 16.794 23.0536L6.942 18.9336C6.84745 18.8869 6.77427 18.8059 6.73739 18.7072C6.70051 18.6084 6.7027 18.4993 6.74353 18.402C6.78435 18.3048 6.86073 18.2269 6.95708 18.184C7.05342 18.1412 7.16248 18.1368 7.262 18.1716L17.118 22.2936C17.1679 22.3146 17.2132 22.3452 17.2513 22.3837C17.2894 22.4222 17.3195 22.4678 17.34 22.518C17.3604 22.5681 17.3707 22.6218 17.3704 22.676C17.3701 22.7301 17.3591 22.7837 17.338 22.8336H17.334ZM20.408 37.8436C20.408 37.9529 20.3646 38.0576 20.2873 38.1349C20.2101 38.2122 20.1053 38.2556 19.996 38.2556C19.8867 38.2556 19.7819 38.2122 19.7047 38.1349C19.6274 38.0576 19.584 37.9529 19.584 37.8436V17.1356C19.584 17.0263 19.6274 16.9215 19.7047 16.8443C19.7819 16.767 19.8867 16.7236 19.996 16.7236C20.1053 16.7236 20.2101 16.767 20.2873 16.8443C20.3646 16.9215 20.408 17.0263 20.408 17.1356V37.8436ZM23.478 22.2596L33.366 18.1996C33.4162 18.1791 33.4699 18.1687 33.5241 18.169C33.5782 18.1692 33.6318 18.1802 33.6818 18.2012C33.7318 18.2222 33.7771 18.2528 33.8152 18.2913C33.8533 18.3298 33.8835 18.3754 33.904 18.4256C33.9245 18.4758 33.9349 18.5295 33.9346 18.5836C33.9343 18.6378 33.9234 18.6914 33.9024 18.7414C33.8814 18.7914 33.8508 18.8367 33.8123 18.8748C33.7738 18.9129 33.7282 18.9431 33.678 18.9636L23.8 23.0216C23.7501 23.0429 23.6963 23.0538 23.642 23.0536C23.5433 23.0581 23.4463 23.0269 23.3687 22.9658C23.291 22.9048 23.2379 22.8178 23.219 22.7209C23.2001 22.6239 23.2167 22.5234 23.2657 22.4376C23.3147 22.3518 23.3929 22.2865 23.486 22.2536L23.478 22.2596ZM23.478 25.4176L33.362 21.3636C33.4125 21.3406 33.467 21.3281 33.5224 21.3268C33.5778 21.3254 33.633 21.3352 33.6845 21.3557C33.736 21.3761 33.7829 21.4067 33.8223 21.4457C33.8617 21.4847 33.8928 21.5312 33.9138 21.5825C33.9348 21.6338 33.9453 21.6888 33.9445 21.7442C33.9438 21.7997 33.9318 21.8544 33.9094 21.9051C33.887 21.9558 33.8546 22.0014 33.8142 22.0393C33.7737 22.0772 33.7261 22.1066 33.674 22.1256L23.8 26.1816C23.7497 26.2013 23.6961 26.2115 23.642 26.2116C23.5433 26.2161 23.4463 26.1849 23.3687 26.1238C23.291 26.0628 23.2379 25.9758 23.219 25.8789C23.2001 25.7819 23.2167 25.6814 23.2657 25.5956C23.3147 25.5098 23.3929 25.4445 23.486 25.4116L23.478 25.4176ZM33.678 25.2856L23.8 29.3416C23.7497 29.3613 23.6961 29.3715 23.642 29.3716C23.5433 29.3761 23.4463 29.3449 23.3687 29.2838C23.291 29.2228 23.2379 29.1358 23.219 29.0389C23.2001 28.9419 23.2167 28.8414 23.2657 28.7556C23.3147 28.6698 23.3929 28.6045 23.486 28.5716L33.37 24.5176C33.4205 24.4946 33.475 24.4821 33.5304 24.4808C33.5858 24.4794 33.641 24.4892 33.6925 24.5097C33.744 24.5301 33.7909 24.5607 33.8303 24.5997C33.8697 24.6387 33.9008 24.6852 33.9218 24.7365C33.9428 24.7878 33.9533 24.8428 33.9525 24.8982C33.9518 24.9537 33.9398 25.0084 33.9174 25.0591C33.895 25.1098 33.8626 25.1554 33.8222 25.1933C33.7817 25.2312 33.7341 25.2606 33.682 25.2796L33.678 25.2856ZM23.638 32.5316C23.5393 32.5361 23.4423 32.5049 23.3647 32.4438C23.287 32.3828 23.2339 32.2958 23.215 32.1989C23.1961 32.1019 23.2126 32.0014 23.2617 31.9156C23.3107 31.8298 23.3889 31.7645 23.482 31.7316L33.366 27.6756C33.4162 27.6551 33.4699 27.6447 33.5241 27.645C33.5782 27.6452 33.6318 27.6562 33.6818 27.6772C33.7318 27.6982 33.7771 27.7288 33.8152 27.7673C33.8533 27.8058 33.8835 27.8514 33.904 27.9016C33.9245 27.9518 33.9349 28.0055 33.9346 28.0596C33.9343 28.1138 33.9234 28.1674 33.9024 28.2174C33.8814 28.2674 33.8508 28.3127 33.8123 28.3508C33.7738 28.3889 33.7282 28.4191 33.678 28.4396L23.8 32.4996C23.7488 32.5214 23.6936 32.5323 23.638 32.5316ZM37.854 37.7996C37.854 37.815 37.8479 37.8297 37.837 37.8406C37.8261 37.8515 37.8114 37.8576 37.796 37.8576H26.498L35.216 34.2876C35.604 34.1291 35.9361 33.8585 36.1698 33.5105C36.4034 33.1625 36.5281 32.7528 36.528 32.3336V16.8736H37.8C37.815 16.8736 37.8295 16.8794 37.8403 16.8899C37.8511 16.9003 37.8575 16.9146 37.858 16.9296L37.854 37.7996Z" fill="#11C5E3"/>
<path d="M38.8148 9.05041C38.6643 9.05053 38.5151 9.02273 38.3748 8.96841L23.5248 3.12441C21.262 2.22946 18.7435 2.22946 16.4808 3.12441L1.66077 8.96041C1.51331 9.02295 1.35483 9.05534 1.19466 9.05567C1.03449 9.056 0.875869 9.02426 0.728157 8.96233C0.580445 8.90039 0.446627 8.80951 0.334591 8.69504C0.222556 8.58057 0.134571 8.44483 0.0758215 8.29582C0.0170725 8.14681 -0.0112512 7.98755 -0.00747979 7.82742C-0.00370843 7.66729 0.0320816 7.50954 0.0977806 7.36346C0.16348 7.21739 0.257758 7.08594 0.375058 6.97687C0.492358 6.8678 0.630306 6.78332 0.780771 6.72841L15.6028 0.89241C18.4298 -0.224553 21.5758 -0.224553 24.4028 0.89241L39.2528 6.73441C39.5124 6.83704 39.7282 7.027 39.8629 7.27159C39.9976 7.51618 40.0427 7.80007 39.9906 8.07438C39.9385 8.34869 39.7924 8.59624 39.5774 8.7744C39.3624 8.95255 39.092 9.05016 38.8128 9.05041H38.8148Z" fill="#11C5E3"/>
</g>
<defs>
<clipPath id="clip0_530_27606">
<rect width="40" height="40" fill="white"/>
</clipPath>
</defs>
</svg>
