<svg width="40" height="40" viewBox="0 0 40 40" fill="none" xmlns="http://www.w3.org/2000/svg">
<g clip-path="url(#clip0_530_27609)">
<path d="M27.6 0H4.882C3.5877 0.00158777 2.34687 0.51645 1.43166 1.43166C0.51645 2.34687 0.00158777 3.5877 0 4.882L0 28.4C0.00211679 29.6939 0.517212 30.9343 1.43236 31.849C2.34751 32.7638 3.58805 33.2784 4.882 33.28H20.2C20.0845 32.7716 20.0056 32.2556 19.964 31.736C19.942 31.45 19.926 31.16 19.926 30.868C19.9252 29.4401 20.206 28.026 20.7522 26.7067C21.2985 25.3874 22.0995 24.1887 23.1095 23.1793C24.1195 22.1699 25.3186 21.3695 26.6382 20.8239C27.9578 20.2784 29.3721 19.9984 30.8 20C31.3614 20.0016 31.9217 20.047 32.476 20.136V4.882C32.4744 3.58874 31.9604 2.34881 31.0465 1.43377C30.1325 0.518736 28.8933 0.00317398 27.6 0ZM17.864 24.246H7.824C7.71395 24.246 7.60498 24.2243 7.50331 24.1822C7.40164 24.1401 7.30926 24.0784 7.23144 24.0006C7.15363 23.9227 7.0919 23.8304 7.04979 23.7287C7.00767 23.627 6.986 23.518 6.986 23.408C6.986 23.2979 7.00767 23.189 7.04979 23.0873C7.0919 22.9856 7.15363 22.8933 7.23144 22.8154C7.30926 22.7376 7.40164 22.6759 7.50331 22.6338C7.60498 22.5917 7.71395 22.57 7.824 22.57H17.864C18.0862 22.57 18.2994 22.6583 18.4566 22.8154C18.6137 22.9726 18.702 23.1857 18.702 23.408C18.702 23.6302 18.6137 23.8434 18.4566 24.0006C18.2994 24.1577 18.0862 24.246 17.864 24.246ZM25.012 17.566H7.824C7.71395 17.566 7.60498 17.5443 7.50331 17.5022C7.40164 17.4601 7.30926 17.3984 7.23144 17.3206C7.15363 17.2427 7.0919 17.1504 7.04979 17.0487C7.00767 16.947 6.986 16.838 6.986 16.728C6.986 16.6179 7.00767 16.509 7.04979 16.4073C7.0919 16.3056 7.15363 16.2133 7.23144 16.1354C7.30926 16.0576 7.40164 15.9959 7.50331 15.9538C7.60498 15.9117 7.71395 15.89 7.824 15.89H25.012C25.2342 15.89 25.4474 15.9783 25.6046 16.1354C25.7617 16.2926 25.85 16.5057 25.85 16.728C25.85 16.9502 25.7617 17.1634 25.6046 17.3206C25.4474 17.4777 25.2342 17.566 25.012 17.566ZM25.012 10.884H7.824C7.60175 10.884 7.3886 10.7957 7.23144 10.6386C7.07429 10.4814 6.986 10.2682 6.986 10.046C6.986 9.82375 7.07429 9.6106 7.23144 9.45344C7.3886 9.29629 7.60175 9.208 7.824 9.208H25.012C25.2342 9.208 25.4474 9.29629 25.6046 9.45344C25.7617 9.6106 25.85 9.82375 25.85 10.046C25.85 10.2682 25.7617 10.4814 25.6046 10.6386C25.4474 10.7957 25.2342 10.884 25.012 10.884Z" fill="#11C5E3"/>
<path d="M32.4776 21.7996C31.9249 21.6958 31.3639 21.6436 30.8016 21.6436C28.3605 21.6467 26.0204 22.6187 24.2955 24.3459C22.5705 26.0732 21.6016 28.4145 21.6016 30.8556C21.6016 31.1036 21.6136 31.3476 21.6336 31.5916C21.7727 33.3021 22.3875 34.9397 23.4085 36.3192C24.4295 37.6987 25.816 38.765 27.4114 39.3978C29.0067 40.0306 30.7472 40.2045 32.4362 39.8999C34.1252 39.5952 35.6953 38.8243 36.969 37.6741C38.2428 36.5239 39.1695 35.0403 39.6442 33.3911C40.119 31.7418 40.123 29.9926 39.6558 28.3412C39.1885 26.6898 38.2687 25.202 37.0002 24.046C35.7317 22.89 34.1651 22.1119 32.4776 21.7996ZM35.3896 32.0656L29.6496 35.3795C29.4366 35.5025 29.1951 35.5672 28.9492 35.5671C28.7033 35.567 28.4618 35.5022 28.2489 35.3792C28.036 35.2561 27.8593 35.0791 27.7365 34.8661C27.6138 34.6531 27.5493 34.4114 27.5496 34.1656V27.5476C27.5493 27.3017 27.6138 27.06 27.7365 26.847C27.8593 26.634 28.036 26.457 28.2489 26.3339C28.4618 26.2109 28.7033 26.1461 28.9492 26.146C29.1951 26.1459 29.4366 26.2106 29.6496 26.3336L30.8036 26.9996L32.4796 27.9656L35.3916 29.6476C35.6046 29.7705 35.7814 29.9474 35.9043 30.1605C36.0272 30.3735 36.0917 30.6152 36.0915 30.8611C36.0913 31.1071 36.0264 31.3486 35.9031 31.5615C35.7799 31.7743 35.6028 31.9509 35.3896 32.0736V32.0656Z" fill="#11C5E3"/>
</g>
<defs>
<clipPath id="clip0_530_27609">
<rect width="40" height="40" fill="white"/>
</clipPath>
</defs>
</svg>
