<svg width="40" height="40" viewBox="0 0 40 40" fill="none" xmlns="http://www.w3.org/2000/svg">
<g clip-path="url(#clip0_530_27597)">
<path d="M28.822 13.4404C28.7112 13.5903 28.5852 13.7284 28.446 13.8524L22.866 18.7124C22.2175 19.2765 21.4506 19.6876 20.6218 19.9154C19.7931 20.1432 18.9237 20.1818 18.078 20.0284L10.798 18.7004C10.62 18.6658 10.4458 18.6136 10.278 18.5444C8.79883 20.9531 8.07851 23.7512 8.21074 26.5747C8.34297 29.3983 9.32164 32.1167 11.0195 34.3767C12.7174 36.6366 15.0559 38.3334 17.731 39.2466C20.4061 40.1597 23.294 40.2469 26.0193 39.4968C28.7446 38.7466 31.1812 37.194 33.0123 35.0406C34.8434 32.8872 35.9842 30.2327 36.2865 27.4222C36.5888 24.6118 36.0386 21.7754 34.7074 19.2819C33.3761 16.7883 31.3255 14.753 28.822 13.4404ZM29.718 29.5744C29.6193 30.1485 29.4535 30.709 29.224 31.2444C27.836 34.1664 25.482 35.6444 22.738 35.7784C18.738 35.7644 15.696 33.3424 14.89 29.9244C14.758 29.3664 14.802 28.8564 15.274 28.4684C15.4397 28.3293 15.6387 28.2355 15.8514 28.1963C16.0642 28.1571 16.2835 28.1738 16.4879 28.2448C16.6923 28.3157 16.8747 28.4385 17.0174 28.6011C17.1602 28.7637 17.2582 28.9606 17.302 29.1724C17.816 31.3724 19.37 32.8404 21.552 33.1984C24.072 33.6124 26.634 31.9064 27.21 29.4264C27.308 29.0064 27.45 28.6264 27.834 28.3784C28.0367 28.2432 28.2758 28.1728 28.5195 28.1768C28.7631 28.1807 28.9998 28.2587 29.198 28.4004C29.3976 28.5161 29.5554 28.692 29.6488 28.9029C29.7422 29.1138 29.7665 29.3489 29.718 29.5744ZM28.488 25.8424C24.3867 25.8424 20.2854 25.8424 16.184 25.8424C15.358 25.8424 14.85 25.3424 14.856 24.5584C14.856 23.8044 15.374 23.3244 16.188 23.3244H27.27C27.27 22.6484 27.27 22.0404 27.27 21.4324C27.27 20.6324 27.756 20.1184 28.522 20.1184C29.288 20.1184 29.792 20.6304 29.794 21.4224C29.794 22.4504 29.794 23.4791 29.794 24.5084C29.798 25.3624 29.328 25.8424 28.488 25.8424Z" fill="#11C5E3"/>
<path d="M18.8432 13.8004C18.1049 14.0032 17.3303 14.0367 16.5772 13.8984L8.61719 12.4464L9.20119 14.5724L9.71319 16.4324C9.79445 16.7307 9.95856 16.9999 10.1865 17.2087C10.4145 17.4175 10.6969 17.5575 11.0012 17.6124L15.1412 18.3684L18.2792 18.9404C18.9614 19.0645 19.6627 19.0335 20.3313 18.8497C20.9998 18.6659 21.6184 18.3339 22.1412 17.8784L24.5412 15.7844L27.7172 13.0184C27.9504 12.8156 28.1214 12.551 28.2106 12.2552C28.2998 11.9593 28.3034 11.6443 28.2212 11.3464L27.7112 9.48441L27.1112 7.27441L20.8412 12.7324C20.2644 13.2347 19.5813 13.5998 18.8432 13.8004Z" fill="#11C5E3"/>
<path d="M25.5526 1.61816L25.4766 1.64016L25.5626 1.65616L25.5526 1.61816Z" fill="#11C5E3"/>
<path d="M29.5047 2.37228L25.5667 1.65628L25.4807 1.64028L16.8427 0.0642831C16.2603 -0.0432627 15.661 -0.0176255 15.0899 0.139275C14.5187 0.296175 13.9905 0.58027 13.5447 0.970283L3.84072 9.42428C3.75752 9.49866 3.69672 9.59478 3.66514 9.70182C3.63357 9.80886 3.63247 9.92258 3.66197 10.0302C3.69148 10.1378 3.75042 10.2351 3.83216 10.3111C3.91391 10.3871 4.01522 10.4387 4.12472 10.4603L8.27872 11.2163L16.7867 12.7683C17.3689 12.876 17.9678 12.8504 18.5387 12.6935C19.1095 12.5366 19.6374 12.2524 20.0827 11.8623L26.7707 6.03828L27.8247 5.11828L27.9947 5.73628L28.1647 6.35428L30.1547 13.6003C30.2078 13.7899 30.334 13.9507 30.5056 14.0473C30.6772 14.1439 30.8801 14.1683 31.0697 14.1153C31.2593 14.0622 31.4201 13.936 31.5167 13.7644C31.6133 13.5928 31.6378 13.3899 31.5847 13.2003L29.4027 5.27628L29.2327 4.65828L29.0627 4.04028L29.7887 3.40028C29.8737 3.32846 29.9363 3.23371 29.9689 3.12732C30.0015 3.02093 30.0028 2.90741 29.9727 2.80028C29.9438 2.69167 29.8843 2.59363 29.8014 2.51778C29.7184 2.44192 29.6155 2.39143 29.5047 2.37228Z" fill="#11C5E3"/>
</g>
<defs>
<clipPath id="clip0_530_27597">
<rect width="40" height="40" fill="white"/>
</clipPath>
</defs>
</svg>
